<svg xmlns="http://www.w3.org/2000/svg" viewBox="0 0 220 220" role="img" aria-label="Логотип Социологического института РАН — филиала ФНИСЦ РАН"><rect width="220" height="220" fill="none"/><path d="M171 28c-37-17-91-16-124 12C11 70 5 126 31 166c25 38 78 50 120 30" fill="none" stroke="#383838" stroke-width="28" stroke-linecap="round"/><path d="M171 28l22 6-4 52" fill="none" stroke="#383838" stroke-width="18" stroke-linecap="round" stroke-linejoin="round"/><text x="154" y="156" font-family="Georgia, 'Times New Roman', serif" font-size="94" font-weight="700" fill="#d33a2c">И</text><path d="M54 138h76" stroke="#222" stroke-width="5" stroke-linecap="round"/><path d="M60 136V92l12-8 12 8v44M84 136V78l14-10 14 10v58M112 136V94l12-8 12 8v42" fill="none" stroke="#222" stroke-width="5" stroke-linejoin="round"/><path d="M47 140h100" stroke="#fff" stroke-width="9" stroke-linecap="round"/><path d="M50 140h98" stroke="#222" stroke-width="4" stroke-linecap="round"/></svg>
