<svg xmlns="http://www.w3.org/2000/svg" viewBox="0 0 128 128" role="img" aria-label="Логотип Института социальной демографии ФНИСЦ РАН"><circle cx="64" cy="64" r="58" fill="none" stroke="#2f62b3" stroke-width="5"/><circle cx="75" cy="30" r="13" fill="#3e6fb8"/><rect x="60" y="45" width="32" height="55" rx="8" fill="#3e6fb8"/><circle cx="43" cy="43" r="12" fill="#d95345"/><path d="M31 59c0-7 5-12 12-12s12 5 12 12v45H31z" fill="#d95345"/><circle cx="50" cy="79" r="10" fill="#d9d9d9"/><circle cx="66" cy="73" r="10" fill="#d9d9d9"/><circle cx="82" cy="68" r="10" fill="#d9d9d9"/><path d="M39 92c0-7 4-11 11-11s11 4 11 11v23H39zM55 88c0-7 4-11 11-11s11 4 11 11v27H55zM71 84c0-7 4-11 11-11s11 4 11 11v31H71z" fill="#d9d9d9"/></svg>
