<svg xmlns="http://www.w3.org/2000/svg" viewBox="0 0 1200 620" role="img" aria-labelledby="title desc">
  <title id="title">Карта присутствия ФНИСЦ РАН</title>
  <desc id="desc">Схематическая карта субъектов Российской Федерации с отмеченными территориальными узлами Совета молодых учёных ФНИСЦ РАН: Москва, Санкт-Петербург, Симферополь, Нальчик и Ростов-на-Дону.</desc>
  <style>
    :root { color-scheme: light; }
    .background { fill: #f7f9fc; }
    .region { fill: #e7edf7; stroke: #ffffff; stroke-width: 0.85; vector-effect: non-scaling-stroke; }
    .region--active { fill: #d7c28a; stroke: #182b62; stroke-width: 1.35; }
    .leader { stroke: #9e1f2f; stroke-width: 1.4; stroke-linecap: round; opacity: .8; }
    .pin circle { fill: #9e1f2f; stroke: #ffffff; stroke-width: 2.6; }
    .pin text { fill: #ffffff; font-family: Arial, Helvetica, sans-serif; font-size: 10px; font-weight: 800; text-anchor: middle; }
    .label { font-family: Arial, Helvetica, sans-serif; stroke: none; }
    .label-title { fill: #182b62; font-size: 15px; font-weight: 800; }
    .label-subtitle { fill: #344054; font-size: 11px; font-weight: 700; }
    .caption { fill: #667085; font-family: Arial, Helvetica, sans-serif; font-size: 12px; }
  </style>
  <rect class="background" width="1200" height="620" rx="24"/>
  <g aria-hidden="true">
    <path class="region" data-name="Алтайский край" d="M 532.7,474.4 L 532.0,475.5 L 529.7,474.3 L 529.1,476.1 L 527.8,475.5 L 527.8,480.8 L 522.7,481.4 L 520.6,479.4 L 519.4,479.9 L 519.4,482.1 L 514.7,485.4 L 503.9,486.1 L 502.0,488.5 L 500.7,487.2 L 504.5,491.1 L 503.7,492.1 L 504.8,493.0 L 503.2,494.4 L 499.8,494.0 L 498.8,490.2 L 495.9,487.4 L 493.6,486.6 L 491.9,487.9 L 490.1,486.6 L 488.0,488.5 L 481.9,485.3 L 478.9,485.2 L 479.7,482.2 L 476.7,481.5 L 478.7,478.4 L 475.4,475.7 L 474.6,477.0 L 473.1,476.4 L 472.2,479.5 L 468.3,479.7 L 467.8,481.2 L 464.5,441.1 L 466.3,440.6 L 466.2,438.6 L 468.2,438.8 L 468.0,440.7 L 470.3,441.6 L 471.3,439.9 L 479.5,441.6 L 484.2,439.0 L 487.8,439.6 L 492.3,437.3 L 492.4,441.2 L 495.5,443.7 L 494.4,444.9 L 496.9,445.0 L 495.1,447.1 L 495.5,448.5 L 498.3,449.6 L 497.6,450.5 L 500.3,453.0 L 502.6,449.7 L 507.6,447.2 L 508.2,449.4 L 510.4,447.5 L 517.2,449.3 L 523.9,446.9 L 524.8,451.0 L 526.5,451.1 L 529.4,455.2 L 530.0,460.9 L 532.7,463.7 L 533.8,463.3 L 530.4,466.9 L 533.1,469.7 L 531.2,471.9 L 532.7,474.3 Z"/><path class="region" data-name="Амурская область" d="M 911.1,433.1 L 910.9,438.6 L 913.3,440.8 L 913.7,444.5 L 902.2,445.9 L 903.3,448.9 L 905.9,451.0 L 901.6,453.6 L 899.6,460.1 L 893.4,464.5 L 895.9,468.5 L 894.3,468.6 L 892.9,471.3 L 892.7,479.9 L 895.4,479.0 L 896.6,482.7 L 897.7,481.2 L 901.0,482.5 L 904.4,488.4 L 903.4,489.7 L 906.2,492.5 L 906.2,495.0 L 903.8,496.4 L 904.6,499.8 L 898.5,504.0 L 889.6,499.2 L 886.3,501.5 L 883.0,500.8 L 882.6,499.4 L 878.0,501.9 L 873.4,501.6 L 870.3,498.1 L 870.1,494.6 L 867.4,494.1 L 865.4,488.9 L 860.9,485.9 L 860.2,482.4 L 859.2,483.4 L 859.4,481.6 L 853.4,475.7 L 853.3,473.0 L 851.0,472.7 L 851.7,471.2 L 846.5,467.9 L 847.1,465.8 L 845.8,466.3 L 844.4,464.9 L 843.3,465.8 L 842.0,463.0 L 837.9,462.5 L 836.1,464.6 L 824.6,461.5 L 813.2,466.1 L 810.8,461.3 L 807.4,458.4 L 808.3,457.0 L 806.9,454.1 L 810.2,452.7 L 808.1,451.5 L 807.1,448.3 L 805.3,449.5 L 806.9,445.7 L 805.4,438.9 L 803.3,437.6 L 800.5,439.9 L 797.8,433.2 L 790.4,437.5 L 788.9,433.7 L 792.1,431.1 L 789.5,429.0 L 787.2,429.3 L 784.3,426.0 L 788.0,421.6 L 796.1,420.2 L 798.4,423.2 L 802.3,422.1 L 806.2,424.8 L 808.0,422.7 L 810.1,424.1 L 816.2,423.4 L 822.3,428.8 L 827.6,426.8 L 830.5,428.4 L 832.3,426.9 L 834.4,427.4 L 834.9,429.0 L 837.5,428.7 L 842.4,424.8 L 845.8,425.4 L 846.2,423.2 L 847.2,423.9 L 850.3,422.3 L 854.9,423.7 L 856.8,422.4 L 855.8,420.3 L 859.6,417.5 L 862.4,417.5 L 867.4,414.9 L 870.8,415.2 L 879.4,410.1 L 884.9,412.8 L 883.1,414.2 L 883.3,416.0 L 881.5,416.6 L 882.8,418.4 L 880.6,419.8 L 880.4,422.3 L 876.3,427.9 L 877.5,431.9 L 874.9,433.5 L 874.3,439.3 L 878.8,439.6 L 882.7,438.3 L 885.7,445.0 L 888.2,443.4 L 889.5,444.7 L 890.5,442.7 L 896.2,440.3 L 899.6,434.1 L 903.0,434.2 L 906.2,429.9 L 909.9,431.0 L 909.7,432.5 L 911.1,433.1 Z"/><path class="region" data-name="Архангельская область" d="M 524.9,41.3 L 521.0,39.6 L 521.5,35.3 L 525.2,36.7 L 526.0,39.2 L 525.1,41.2 Z M 584.5,87.3 L 580.5,89.4 L 572.2,87.0 L 567.7,87.4 L 563.8,89.9 L 557.8,88.1 L 556.3,85.9 L 556.7,82.8 L 553.8,80.9 L 552.9,76.9 L 549.7,76.9 L 547.3,74.1 L 543.9,73.1 L 537.6,63.8 L 537.6,51.1 L 540.3,50.4 L 546.5,53.3 L 549.9,57.5 L 553.4,56.7 L 555.9,57.8 L 557.9,61.7 L 555.6,64.3 L 555.8,66.4 L 561.1,61.9 L 566.3,65.0 L 569.5,65.5 L 571.5,64.2 L 575.6,66.1 L 578.3,69.3 L 576.9,72.0 L 581.1,72.6 L 585.3,76.3 L 585.6,78.6 L 584.1,79.9 L 576.7,77.5 L 577.8,80.0 L 581.1,79.7 L 584.0,81.6 L 585.4,84.5 L 584.7,87.0 Z M 565.9,136.7 L 558.5,141.7 L 534.2,138.9 L 501.0,148.1 L 491.1,152.8 L 486.9,156.5 L 483.0,165.2 L 484.6,176.0 L 475.4,178.8 L 474.6,176.5 L 468.7,170.6 L 465.5,162.9 L 466.3,146.8 L 469.8,141.7 L 482.7,135.6 L 492.3,133.8 L 495.3,129.4 L 504.8,128.1 L 513.7,121.7 L 519.5,122.2 L 531.4,120.2 L 538.6,122.2 L 545.7,126.9 L 551.4,127.9 L 562.5,127.0 L 566.2,131.3 L 566.0,136.4 Z M 398.7,207.5 L 395.3,209.6 L 392.8,205.5 L 391.0,206.6 L 389.5,203.9 L 387.7,205.0 L 386.5,203.2 L 384.7,204.3 L 383.9,202.9 L 385.0,201.7 L 382.0,198.0 L 372.8,191.0 L 373.7,201.0 L 369.3,206.6 L 370.2,210.0 L 364.9,210.5 L 359.5,217.9 L 360.5,219.1 L 362.1,217.8 L 364.6,221.1 L 369.1,217.3 L 370.2,219.1 L 371.9,218.0 L 374.8,222.8 L 360.9,230.5 L 362.4,233.1 L 357.0,236.5 L 352.0,233.6 L 349.9,235.1 L 348.3,232.5 L 349.5,230.9 L 347.0,227.0 L 344.2,228.4 L 343.7,227.6 L 343.9,223.9 L 342.2,223.4 L 340.4,220.4 L 342.2,219.3 L 340.7,216.6 L 337.1,218.8 L 333.4,212.7 L 334.5,211.9 L 333.6,210.8 L 328.7,211.1 L 327.7,208.8 L 326.2,208.6 L 326.6,205.5 L 324.7,205.8 L 323.3,202.1 L 324.2,201.6 L 322.3,199.5 L 318.9,200.8 L 316.9,194.6 L 313.8,193.4 L 313.6,190.6 L 311.7,188.4 L 310.7,189.0 L 311.3,186.8 L 309.5,185.3 L 309.8,183.5 L 312.3,180.7 L 313.5,176.9 L 316.9,173.9 L 321.7,172.2 L 323.6,169.1 L 322.6,167.9 L 327.9,165.3 L 326.4,161.0 L 328.3,155.7 L 331.2,154.9 L 330.6,154.2 L 333.8,149.8 L 336.1,152.3 L 344.5,149.9 L 346.9,141.1 L 349.4,137.6 L 361.2,127.9 L 360.3,134.7 L 365.9,146.0 L 372.5,150.8 L 391.5,154.7 L 393.5,154.4 L 407.7,136.5 L 395.5,157.5 L 392.8,169.1 L 396.6,184.0 L 399.1,186.5 L 403.2,185.1 L 406.3,188.9 L 397.5,197.4 L 400.3,199.2 L 398.0,206.0 L 398.7,207.4 Z"/><path class="region" data-name="Астраханская область" d="M 183.9,363.4 L 182.9,363.8 L 180.4,360.7 L 183.9,363.3 Z M 208.3,380.2 L 199.5,377.7 L 195.5,378.4 L 191.7,373.9 L 187.9,373.3 L 186.9,369.3 L 189.3,366.8 L 183.9,362.5 L 183.2,358.8 L 184.6,358.5 L 184.2,355.6 L 185.7,356.4 L 189.3,354.0 L 189.1,352.9 L 193.8,355.9 L 195.0,353.6 L 199.2,351.2 L 198.5,350.0 L 201.1,344.5 L 204.6,345.6 L 204.2,343.9 L 199.7,342.4 L 200.8,335.1 L 202.7,333.8 L 201.4,332.4 L 200.9,325.8 L 202.9,324.9 L 204.9,325.4 L 204.8,327.1 L 205.9,327.2 L 205.4,325.2 L 209.4,328.0 L 212.6,327.8 L 214.7,330.5 L 214.7,334.0 L 211.5,335.2 L 213.5,341.0 L 211.6,342.2 L 212.1,343.2 L 210.3,342.9 L 208.7,345.9 L 209.0,348.0 L 210.8,346.8 L 214.1,352.5 L 213.2,358.3 L 209.5,367.6 L 206.2,364.7 L 204.8,366.2 L 206.2,368.0 L 208.3,379.7 Z M 191.3,360.1 L 190.1,359.6 L 191.3,360.2 Z"/><path class="region" data-name="Белгородская область" d="M 190.0,270.9 L 185.9,270.3 L 187.0,266.7 L 185.5,265.6 L 186.1,263.4 L 182.6,262.8 L 183.9,257.8 L 186.4,254.6 L 179.8,250.2 L 180.0,244.4 L 176.8,241.7 L 178.4,238.3 L 181.2,237.7 L 182.4,235.3 L 184.6,239.1 L 188.2,239.1 L 189.4,243.8 L 193.8,246.6 L 195.3,245.6 L 199.9,251.3 L 199.9,256.5 L 197.8,256.6 L 199.5,260.2 L 198.0,261.6 L 197.3,260.3 L 196.1,260.9 L 196.1,265.2 L 193.3,265.6 L 190.2,270.9 Z"/><path class="region" data-name="Брянская область" d="M 207.5,220.5 L 202.8,218.2 L 202.1,221.6 L 198.2,221.5 L 195.8,223.3 L 191.0,221.4 L 189.0,222.3 L 192.8,214.5 L 191.1,213.2 L 190.5,210.0 L 187.7,208.7 L 186.8,204.4 L 184.4,205.5 L 181.5,202.9 L 183.6,198.7 L 189.3,195.7 L 190.9,191.8 L 193.7,191.8 L 194.8,193.3 L 194.2,196.4 L 196.1,198.8 L 202.0,200.9 L 209.6,200.4 L 211.9,201.9 L 212.3,203.8 L 211.1,204.6 L 212.9,207.0 L 208.6,212.8 L 209.6,216.4 L 207.4,218.7 L 207.5,220.5 Z"/><path class="region" data-name="Владимирская область" d="M 275.9,246.5 L 275.2,244.9 L 277.0,242.4 L 275.6,239.5 L 273.5,238.8 L 275.0,237.0 L 271.3,233.0 L 270.2,228.4 L 266.9,227.7 L 266.1,225.8 L 269.3,223.1 L 268.8,221.4 L 266.8,219.8 L 264.0,221.1 L 262.8,217.4 L 261.2,216.8 L 262.4,214.5 L 259.8,215.0 L 254.9,220.9 L 256.4,224.2 L 255.4,225.0 L 256.6,226.6 L 255.9,228.5 L 258.6,230.3 L 254.5,236.2 L 256.2,238.3 L 254.6,239.8 L 257.1,241.7 L 256.4,243.0 L 258.0,243.8 L 258.8,248.0 L 264.3,247.5 L 266.7,245.4 L 272.6,246.6 L 273.7,245.3 L 275.9,246.5 Z"/><path class="region" data-name="Волгоградская область" d="M 237.0,324.3 L 235.8,323.1 L 237.1,321.7 L 235.2,319.9 L 236.4,316.7 L 232.1,315.4 L 230.8,314.0 L 232.5,313.0 L 232.1,310.5 L 229.3,311.0 L 226.7,307.7 L 230.8,305.6 L 231.2,300.5 L 228.1,296.0 L 226.7,296.6 L 226.1,294.2 L 221.4,291.8 L 221.5,286.4 L 218.8,285.1 L 215.5,280.3 L 213.5,280.8 L 207.8,278.6 L 207.4,282.7 L 202.8,284.4 L 201.1,288.2 L 200.9,294.5 L 194.1,297.7 L 195.8,299.9 L 194.6,305.4 L 191.8,307.0 L 186.6,303.9 L 185.6,305.7 L 184.8,305.0 L 181.9,306.6 L 184.6,310.4 L 181.3,317.4 L 183.2,318.8 L 182.2,319.4 L 184.7,323.4 L 188.0,321.5 L 189.7,322.9 L 192.0,322.7 L 193.1,325.1 L 197.0,321.6 L 197.7,323.6 L 196.2,324.7 L 197.8,326.6 L 203.6,324.9 L 204.9,325.5 L 204.8,327.1 L 205.9,327.2 L 205.4,325.2 L 209.4,328.0 L 213.3,328.3 L 214.7,334.0 L 222.3,332.6 L 222.6,329.2 L 228.7,325.4 L 233.6,326.3 L 234.1,324.8 L 236.9,324.3 Z"/><path class="region" data-name="Вологодская область" d="M 332.1,239.3 L 331.3,239.8 L 328.4,236.0 L 325.3,238.2 L 323.6,236.6 L 321.8,237.7 L 319.5,233.9 L 317.1,233.1 L 314.3,229.3 L 313.3,224.9 L 311.4,224.5 L 312.6,223.3 L 311.0,223.4 L 311.0,221.4 L 308.4,221.0 L 309.3,218.3 L 307.1,216.9 L 308.0,214.2 L 305.9,214.5 L 306.2,216.0 L 304.6,216.8 L 300.0,213.5 L 295.8,215.6 L 291.7,212.6 L 290.8,209.9 L 292.2,208.4 L 292.4,204.7 L 290.6,200.8 L 287.8,202.1 L 284.5,197.2 L 281.9,195.9 L 280.0,196.4 L 282.3,191.3 L 281.2,189.2 L 275.1,188.9 L 277.2,185.7 L 276.5,180.8 L 274.8,180.5 L 274.8,179.2 L 276.5,178.5 L 276.5,174.9 L 279.1,174.9 L 281.7,177.2 L 283.8,175.3 L 284.3,176.6 L 286.0,175.5 L 285.9,176.4 L 287.1,175.7 L 286.5,174.5 L 289.7,172.9 L 289.2,170.8 L 298.6,165.7 L 302.7,167.1 L 305.1,165.6 L 314.4,170.0 L 314.1,172.2 L 316.1,174.8 L 313.5,176.9 L 312.3,180.7 L 309.8,183.5 L 309.5,185.3 L 311.3,186.8 L 310.7,189.0 L 311.7,188.4 L 313.6,190.6 L 313.8,193.4 L 316.9,194.6 L 318.9,200.8 L 321.3,199.1 L 323.7,200.9 L 323.6,203.8 L 325.0,206.0 L 326.6,205.5 L 326.2,208.6 L 327.7,208.8 L 328.7,211.1 L 333.6,210.8 L 334.5,211.9 L 333.4,212.7 L 337.1,218.8 L 340.7,216.6 L 342.2,219.3 L 340.4,220.4 L 342.2,223.4 L 343.9,223.9 L 344.2,228.4 L 340.9,230.9 L 336.4,232.3 L 334.2,229.8 L 333.3,231.3 L 334.4,234.1 L 336.5,234.7 L 332.2,237.3 L 333.1,238.6 Z"/><path class="region" data-name="Воронежская область" d="M 222.2,286.8 L 218.8,285.1 L 216.2,280.5 L 213.5,280.8 L 207.8,278.6 L 207.7,282.3 L 206.0,282.5 L 205.0,284.3 L 201.6,284.3 L 201.2,285.6 L 198.2,284.5 L 194.6,285.3 L 191.3,283.5 L 190.1,280.2 L 187.4,278.3 L 188.4,275.6 L 187.1,272.6 L 190.2,270.9 L 193.3,265.6 L 196.1,265.2 L 196.0,261.0 L 197.3,260.3 L 198.0,261.6 L 199.7,259.6 L 198.0,258.9 L 197.8,256.6 L 199.9,256.5 L 199.8,254.2 L 201.2,254.2 L 202.9,250.7 L 206.0,252.5 L 207.8,249.3 L 210.9,251.2 L 211.3,254.6 L 213.7,255.2 L 214.0,260.2 L 216.4,261.8 L 219.0,267.3 L 217.4,270.0 L 220.8,272.5 L 221.9,278.1 L 223.5,278.3 L 222.4,279.5 L 223.8,280.7 L 223.6,283.6 L 222.2,286.8 Z"/><path class="region region--active" data-name="Город Москва" d="M 245.9,213.7 L 245.0,212.1 L 246.0,213.6 Z M 249.3,212.8 L 249.3,211.6 L 249.3,212.8 Z M 249.2,219.1 L 246.1,217.8 L 244.2,218.4 L 244.0,217.3 L 241.5,219.0 L 238.8,217.4 L 242.1,213.3 L 242.6,215.9 L 244.3,214.4 L 246.4,216.0 L 249.5,213.4 L 248.9,214.5 L 250.4,214.8 L 249.2,219.1 Z"/><path class="region region--active" data-name="Город Санкт-Петербург" d="M 271.8,146.7 L 268.8,144.4 L 270.9,143.6 L 269.2,142.6 L 270.6,142.5 L 270.2,139.7 L 273.3,136.0 L 274.9,137.7 L 274.8,142.2 L 273.9,144.2 L 272.2,144.5 L 271.9,146.7 Z"/><path class="region" data-name="Город Севастополь" d="M 99.6,268.3 L 98.4,267.0 L 95.8,267.8 L 95.6,263.0 L 97.9,259.8 L 102.6,259.5 L 102.6,263.7 L 101.5,263.7 L 102.0,265.2 L 100.9,265.1 L 99.6,268.2 Z"/><path class="region" data-name="Донецкая Народная Республика" d="M 161.9,262.3 L 161.7,264.1 L 159.0,264.8 L 157.8,266.9 L 155.6,267.4 L 154.8,265.0 L 153.3,266.6 L 152.6,265.9 L 150.2,269.6 L 151.0,274.5 L 146.0,273.4 L 145.5,276.7 L 143.7,276.6 L 142.0,279.5 L 148.6,286.0 L 151.0,286.6 L 152.0,284.7 L 157.6,282.0 L 161.1,284.8 L 163.5,284.0 L 165.6,285.3 L 166.1,277.7 L 167.4,277.6 L 169.2,273.6 L 171.8,272.8 L 172.6,271.3 L 171.6,269.6 L 174.3,268.7 L 173.5,267.3 L 174.4,267.0 L 172.8,264.2 L 171.6,265.1 L 166.2,264.4 L 166.2,263.4 L 164.7,263.7 L 163.8,260.9 L 162.1,262.1 Z"/><path class="region" data-name="Еврейская автономная область" d="M 939.5,490.9 L 938.6,490.0 L 935.5,491.8 L 933.5,490.6 L 931.7,493.1 L 926.9,493.9 L 923.7,493.5 L 922.7,491.3 L 919.8,489.8 L 917.7,490.4 L 916.9,489.3 L 913.9,491.2 L 913.3,489.7 L 910.9,489.6 L 910.9,493.1 L 908.9,492.7 L 907.0,495.4 L 903.8,496.4 L 904.6,499.8 L 901.6,501.9 L 902.0,506.0 L 903.5,507.4 L 904.6,506.8 L 906.3,509.0 L 905.8,512.2 L 910.4,516.0 L 914.4,513.9 L 916.0,514.4 L 923.8,510.3 L 923.5,506.9 L 924.9,506.6 L 925.9,503.6 L 929.9,501.5 L 933.8,495.9 L 938.8,493.6 L 939.5,491.0 Z"/><path class="region" data-name="Забайкальский край" d="M 810.2,452.7 L 806.9,454.1 L 808.3,457.0 L 807.4,458.4 L 810.8,461.3 L 813.4,466.2 L 804.2,470.5 L 799.1,479.0 L 800.0,481.4 L 803.0,479.9 L 805.4,480.8 L 805.1,483.5 L 807.1,485.8 L 806.8,489.2 L 802.9,493.5 L 802.0,501.9 L 798.7,512.5 L 801.1,512.9 L 800.9,515.9 L 799.5,517.9 L 795.2,519.5 L 790.3,526.4 L 782.9,525.3 L 774.9,521.9 L 768.9,524.6 L 762.7,521.3 L 758.1,521.1 L 751.3,526.2 L 746.2,533.1 L 733.7,536.6 L 728.9,539.5 L 725.1,538.8 L 723.5,540.3 L 714.4,538.2 L 708.4,538.9 L 703.2,534.5 L 703.2,530.8 L 701.7,531.0 L 701.0,528.0 L 703.4,525.2 L 709.1,522.7 L 704.6,521.1 L 703.5,519.4 L 705.2,518.6 L 705.7,515.4 L 707.5,514.5 L 705.8,512.7 L 707.8,509.4 L 710.3,510.1 L 711.5,508.8 L 714.4,510.9 L 719.0,507.0 L 725.3,507.9 L 727.5,503.9 L 733.1,500.8 L 735.7,496.3 L 738.3,497.2 L 739.5,495.0 L 747.9,492.6 L 751.5,489.2 L 753.1,483.6 L 751.2,483.6 L 751.5,482.1 L 749.3,481.4 L 747.5,476.6 L 756.1,470.1 L 760.1,463.6 L 768.5,460.6 L 769.3,456.7 L 768.1,453.6 L 763.8,449.6 L 760.2,449.8 L 759.0,442.7 L 756.5,438.0 L 757.2,436.0 L 756.0,434.3 L 753.9,434.0 L 755.5,428.9 L 763.3,430.7 L 766.9,426.9 L 767.8,428.4 L 769.0,427.8 L 768.3,423.8 L 769.3,421.5 L 767.8,421.2 L 767.1,422.7 L 765.4,417.8 L 763.9,417.8 L 763.1,415.5 L 765.3,413.6 L 764.6,410.8 L 765.8,410.0 L 764.6,408.4 L 765.7,406.6 L 769.8,406.2 L 773.3,408.6 L 776.3,407.2 L 777.1,413.9 L 778.9,416.9 L 779.4,415.2 L 780.7,415.2 L 780.5,417.5 L 783.3,420.6 L 783.0,422.6 L 785.3,424.1 L 784.3,426.3 L 786.2,426.9 L 787.2,429.3 L 789.5,429.0 L 792.1,431.1 L 788.9,433.7 L 790.4,437.5 L 797.8,433.2 L 800.5,439.9 L 804.3,437.6 L 806.8,442.9 L 805.3,449.5 L 807.1,448.3 L 808.1,451.5 L 810.1,452.5 Z"/><path class="region" data-name="Запорожская область" d="M 127.1,269.6 L 132.0,270.8 L 132.2,274.0 L 136.6,275.3 L 137.1,277.9 L 138.8,279.0 L 142.0,279.4 L 143.7,276.6 L 144.9,277.2 L 146.0,273.4 L 151.0,274.5 L 150.2,269.6 L 152.3,266.8 L 149.7,262.6 L 152.1,260.1 L 147.3,251.1 L 140.9,255.9 L 136.4,249.8 L 134.7,252.5 L 136.4,253.8 L 133.0,256.3 L 132.5,259.2 L 129.8,258.8 L 128.6,260.5 L 129.0,263.9 L 127.0,265.3 L 127.2,268.5 Z"/><path class="region" data-name="Ивановская область" d="M 291.1,238.1 L 287.4,238.8 L 284.5,243.0 L 284.5,241.6 L 282.5,240.5 L 278.9,243.5 L 276.8,242.3 L 275.6,239.5 L 273.5,238.8 L 275.1,237.0 L 271.3,233.0 L 270.2,228.4 L 266.7,227.5 L 266.2,225.4 L 269.3,223.1 L 267.2,219.9 L 270.5,218.9 L 272.7,220.4 L 273.7,219.7 L 284.0,227.6 L 287.3,225.5 L 287.9,230.5 L 291.9,233.0 L 288.8,235.9 L 290.5,237.3 L 292.3,236.0 L 291.2,238.1 Z"/><path class="region" data-name="Иркутская область" d="M 776.2,406.3 L 775.4,403.4 L 772.6,402.4 L 770.4,391.5 L 766.4,389.2 L 765.1,389.6 L 764.7,392.4 L 763.4,391.0 L 762.3,392.5 L 760.1,392.4 L 758.9,391.3 L 759.0,387.5 L 757.4,387.2 L 759.4,385.3 L 757.0,385.4 L 753.6,381.4 L 750.9,381.7 L 747.6,380.0 L 744.4,381.4 L 743.6,385.0 L 741.3,386.2 L 738.8,392.6 L 735.3,395.1 L 735.1,399.7 L 730.5,403.3 L 729.5,402.6 L 729.2,405.7 L 728.3,402.1 L 729.4,399.8 L 726.9,400.2 L 726.5,397.0 L 724.7,400.8 L 722.7,401.7 L 716.3,401.5 L 713.5,405.8 L 709.2,405.1 L 706.1,399.7 L 707.9,396.8 L 708.6,388.8 L 711.0,383.7 L 710.3,382.6 L 711.8,382.2 L 713.0,375.7 L 707.8,373.8 L 708.3,370.7 L 706.0,365.8 L 708.3,360.1 L 707.6,358.5 L 704.8,358.8 L 703.4,356.8 L 705.8,353.0 L 703.6,345.7 L 701.5,343.1 L 695.9,343.0 L 696.7,339.6 L 699.6,339.1 L 697.1,333.1 L 695.2,334.1 L 696.4,334.6 L 696.7,337.3 L 693.4,337.4 L 691.5,339.2 L 687.0,337.3 L 687.8,339.6 L 686.0,344.2 L 687.6,346.2 L 687.0,347.3 L 685.7,346.8 L 685.7,350.0 L 683.9,350.5 L 686.2,355.9 L 688.3,356.9 L 688.1,358.6 L 686.1,360.1 L 686.0,364.9 L 682.9,367.7 L 683.4,369.9 L 675.8,374.6 L 677.5,377.0 L 674.8,378.3 L 673.7,381.6 L 674.9,387.6 L 680.6,390.1 L 680.7,395.4 L 677.6,395.0 L 675.6,397.6 L 677.0,400.6 L 678.8,401.0 L 679.7,405.5 L 675.7,408.9 L 675.9,411.5 L 673.5,412.4 L 671.7,410.0 L 669.5,410.6 L 669.9,408.3 L 667.7,408.0 L 665.1,404.5 L 665.9,403.3 L 663.6,402.5 L 659.5,404.7 L 659.9,410.8 L 654.0,414.6 L 649.6,418.6 L 648.7,421.8 L 647.4,421.6 L 647.7,427.6 L 646.6,428.2 L 644.1,425.9 L 642.2,418.6 L 639.5,418.2 L 637.4,422.1 L 634.1,422.8 L 626.9,420.6 L 621.3,431.0 L 623.6,432.1 L 621.9,433.9 L 624.3,434.8 L 624.3,440.4 L 621.9,440.2 L 621.7,442.8 L 619.9,444.7 L 618.3,443.4 L 616.8,446.9 L 615.2,447.5 L 615.6,454.1 L 613.3,454.9 L 613.2,459.6 L 611.2,464.5 L 607.6,463.4 L 606.1,465.6 L 604.2,465.5 L 604.0,467.6 L 606.8,470.2 L 609.4,475.9 L 610.7,476.7 L 612.6,475.7 L 615.8,478.0 L 617.7,481.2 L 623.1,483.8 L 623.0,485.6 L 628.0,485.2 L 630.3,488.1 L 631.6,486.3 L 635.5,485.3 L 635.8,483.8 L 639.1,483.2 L 641.4,489.1 L 647.8,493.8 L 652.1,498.4 L 651.7,499.7 L 653.6,498.9 L 657.0,499.9 L 658.5,503.0 L 662.3,505.7 L 662.4,509.9 L 667.1,510.9 L 667.1,515.1 L 670.4,513.0 L 674.0,512.8 L 673.8,508.4 L 682.2,505.3 L 686.9,498.3 L 701.6,485.9 L 708.6,470.4 L 709.1,469.1 L 704.9,467.7 L 706.1,465.9 L 706.4,459.1 L 704.7,455.4 L 706.1,449.7 L 709.3,447.9 L 707.2,447.4 L 703.7,443.2 L 704.4,439.9 L 709.8,437.2 L 712.3,437.4 L 714.4,433.4 L 718.1,435.2 L 722.4,435.0 L 724.7,430.5 L 726.9,433.4 L 729.0,432.5 L 731.5,433.6 L 733.3,431.9 L 735.1,435.6 L 738.9,435.9 L 739.7,435.0 L 742.7,436.9 L 744.5,434.2 L 749.0,433.7 L 750.3,427.7 L 754.6,426.8 L 756.5,424.7 L 758.9,426.1 L 755.5,428.9 L 763.4,430.7 L 767.0,426.9 L 767.8,428.4 L 769.0,427.8 L 769.4,425.5 L 768.3,423.8 L 769.3,421.5 L 767.8,421.2 L 767.1,422.7 L 765.4,417.8 L 763.9,417.8 L 763.1,415.5 L 765.3,413.6 L 764.6,410.8 L 765.8,410.0 L 764.6,408.2 L 765.7,406.6 L 769.8,406.2 L 773.3,408.6 L 776.2,406.3 Z"/><path class="region region--active" data-name="Кабардино-Балкарская Республика" d="M 148.7,361.5 L 146.2,362.4 L 146.4,361.4 L 144.4,361.1 L 144.8,359.9 L 141.9,360.9 L 142.0,358.6 L 136.4,359.6 L 134.5,358.4 L 134.5,352.0 L 132.9,350.8 L 132.9,347.3 L 136.8,345.2 L 138.9,346.3 L 140.1,345.4 L 144.6,348.0 L 143.9,350.6 L 146.6,353.8 L 149.9,353.6 L 150.7,356.8 L 152.9,357.5 L 149.1,358.6 L 148.8,361.3 Z"/><path class="region" data-name="Калининградская область" d="M 186.8,121.2 L 189.4,117.8 L 187.4,114.3 L 189.2,108.0 L 188.0,106.1 L 188.6,102.3 L 185.4,101.4 L 182.8,96.8 L 175.6,96.4 L 174.1,98.8 L 175.3,106.5 L 180.2,121.5 L 180.8,122.6 L 183.3,120.7 L 186.8,121.2 Z"/><path class="region" data-name="Калужская область" d="M 236.3,221.1 L 239.5,216.1 L 238.4,215.5 L 239.4,213.1 L 236.0,212.1 L 235.3,207.8 L 233.5,205.3 L 229.1,205.9 L 227.3,204.7 L 224.7,205.8 L 222.9,203.1 L 220.9,204.5 L 219.9,200.7 L 217.9,199.1 L 215.5,200.8 L 211.4,201.0 L 212.3,203.8 L 211.2,205.2 L 212.9,207.0 L 208.3,213.6 L 209.5,218.5 L 217.7,221.4 L 219.0,219.0 L 223.1,219.5 L 223.3,217.2 L 228.5,223.1 L 231.4,220.6 L 232.3,222.2 L 236.3,221.1 Z"/><path class="region" data-name="Камчатский край" d="M 1103.2,251.3 L 1104.5,253.8 L 1103.1,256.0 L 1095.5,257.7 L 1091.8,255.5 L 1093.1,252.2 L 1098.9,250.6 L 1103.0,251.1 Z M 1094.5,258.6 L 1095.8,261.3 L 1093.8,263.7 L 1083.1,264.6 L 1079.7,262.5 L 1079.8,258.6 L 1083.1,255.6 L 1094.2,258.4 Z M 1042.1,159.7 L 1045.2,161.7 L 1045.3,167.4 L 1048.7,180.2 L 1048.7,189.9 L 1052.8,196.9 L 1051.9,199.3 L 1049.6,200.6 L 1040.6,200.5 L 1037.2,204.5 L 1035.9,212.1 L 1038.1,220.3 L 1035.7,223.7 L 1035.9,231.7 L 1040.7,235.1 L 1039.9,244.2 L 1047.2,253.0 L 1049.3,259.8 L 1056.5,261.2 L 1063.5,266.5 L 1064.0,272.3 L 1059.0,275.0 L 1061.4,280.3 L 1064.9,283.3 L 1070.4,284.3 L 1072.6,287.0 L 1073.0,293.3 L 1067.6,298.6 L 1067.7,303.9 L 1069.1,307.5 L 1078.2,314.6 L 1077.9,316.8 L 1075.1,318.4 L 1072.7,322.9 L 1074.3,327.3 L 1077.5,330.4 L 1079.4,335.9 L 1080.6,341.7 L 1080.3,357.5 L 1071.3,355.5 L 1062.1,347.1 L 1053.9,342.2 L 1034.5,327.0 L 1021.3,313.3 L 1016.0,303.6 L 1015.7,298.6 L 1013.3,295.2 L 1014.2,291.6 L 1010.9,290.5 L 1009.7,287.5 L 1012.1,279.9 L 1014.5,277.2 L 1014.7,270.5 L 1010.1,252.7 L 1009.7,243.5 L 1007.0,243.8 L 1006.0,232.7 L 999.7,223.2 L 996.1,221.5 L 996.5,219.8 L 993.2,220.1 L 994.2,215.8 L 990.4,212.3 L 986.0,212.9 L 984.6,211.5 L 985.2,208.3 L 982.5,206.8 L 982.8,204.5 L 978.4,202.9 L 978.5,201.1 L 975.3,199.4 L 976.4,197.5 L 975.5,194.3 L 969.6,192.0 L 969.7,189.0 L 971.9,188.1 L 972.1,186.0 L 977.3,185.3 L 976.2,182.6 L 979.3,181.1 L 982.1,182.1 L 982.5,179.9 L 985.7,178.0 L 986.1,175.1 L 991.0,175.5 L 993.8,171.8 L 998.9,172.6 L 1001.1,170.5 L 1005.2,171.5 L 1007.5,181.9 L 1010.7,180.7 L 1011.2,179.3 L 1017.1,178.4 L 1017.7,177.2 L 1022.6,179.4 L 1025.3,176.4 L 1025.1,173.2 L 1027.0,172.8 L 1027.1,168.4 L 1031.0,165.2 L 1031.4,159.4 L 1034.0,157.7 L 1035.6,159.6 L 1042.0,159.7 Z"/><path class="region" data-name="Карачаево-Черкесская Республика" d="M 139.1,346.2 L 136.8,345.2 L 132.5,347.8 L 129.7,345.3 L 125.7,334.5 L 125.6,331.7 L 127.4,330.0 L 132.2,329.8 L 133.3,328.4 L 135.1,334.3 L 139.6,334.3 L 139.9,332.3 L 142.8,333.5 L 142.1,335.9 L 145.3,340.4 L 140.3,340.5 L 140.6,342.6 L 141.9,343.0 L 139.2,346.2 Z"/><path class="region" data-name="Кемеровская область – Кузбасс" d="M 560.5,436.6 L 551.4,442.7 L 552.4,449.1 L 549.4,454.2 L 547.9,454.7 L 549.6,456.4 L 551.7,455.0 L 552.2,457.0 L 553.6,456.5 L 554.2,457.7 L 551.5,460.8 L 552.7,463.7 L 551.1,463.7 L 547.5,468.7 L 549.4,470.5 L 547.5,474.1 L 549.5,477.3 L 543.4,483.5 L 540.9,484.2 L 541.7,480.4 L 540.1,480.6 L 537.9,478.1 L 535.6,479.1 L 532.0,475.7 L 532.7,474.3 L 531.2,471.9 L 533.1,469.7 L 530.4,466.1 L 532.5,465.5 L 533.8,463.3 L 532.7,463.7 L 530.0,460.9 L 529.4,455.2 L 526.5,451.1 L 524.8,451.0 L 523.5,447.0 L 523.0,442.6 L 524.8,441.9 L 523.7,439.0 L 525.6,434.7 L 523.8,433.2 L 525.5,431.9 L 524.5,428.8 L 525.1,424.4 L 531.5,423.7 L 534.7,424.9 L 534.1,423.7 L 540.0,420.5 L 541.4,422.0 L 543.4,421.2 L 546.0,423.5 L 547.1,423.2 L 546.8,421.9 L 548.2,423.2 L 550.1,422.7 L 550.1,424.4 L 556.6,422.0 L 558.4,424.1 L 556.4,424.9 L 556.4,427.7 L 559.2,430.2 L 560.5,436.6 Z"/><path class="region" data-name="Кировская область" d="M 355.1,281.6 L 353.5,281.5 L 351.5,284.0 L 350.2,283.5 L 348.1,281.8 L 348.9,279.8 L 347.8,278.9 L 346.1,280.1 L 343.8,275.8 L 340.6,275.1 L 338.0,276.6 L 337.7,279.3 L 335.7,280.3 L 335.6,281.8 L 330.7,282.8 L 328.4,280.8 L 326.2,282.5 L 324.7,284.9 L 324.8,288.1 L 321.9,289.4 L 321.0,288.2 L 319.0,289.5 L 317.1,293.7 L 317.9,294.4 L 315.6,294.9 L 314.6,291.2 L 316.3,289.0 L 315.1,289.4 L 314.6,288.1 L 316.6,283.8 L 314.7,283.0 L 316.6,281.4 L 315.7,278.5 L 317.2,276.7 L 314.9,274.4 L 317.6,271.3 L 313.8,272.5 L 314.0,270.9 L 311.6,268.3 L 309.5,269.0 L 307.7,268.2 L 307.6,266.4 L 302.8,265.7 L 303.2,263.8 L 301.5,261.4 L 305.2,259.7 L 305.6,257.7 L 307.8,256.5 L 311.2,260.5 L 314.5,258.4 L 316.3,258.8 L 316.0,255.7 L 311.5,250.5 L 312.1,248.8 L 318.6,246.5 L 320.6,248.1 L 322.7,247.1 L 323.8,248.1 L 325.0,246.8 L 326.5,248.7 L 328.3,245.6 L 327.5,243.9 L 329.3,242.7 L 328.6,241.5 L 336.5,234.7 L 333.9,233.0 L 334.3,229.7 L 336.4,232.3 L 347.0,227.0 L 349.5,230.9 L 348.3,232.5 L 349.9,235.1 L 345.9,239.6 L 346.5,241.3 L 343.6,241.3 L 338.7,246.0 L 340.8,249.3 L 338.7,250.7 L 340.3,254.2 L 338.3,255.6 L 339.6,257.1 L 346.0,252.7 L 350.9,255.9 L 354.3,255.8 L 354.3,258.5 L 361.0,257.6 L 363.4,262.9 L 366.7,264.8 L 365.8,268.1 L 363.0,270.5 L 361.8,270.0 L 357.1,272.7 L 356.2,275.2 L 358.3,277.8 L 356.2,278.8 L 355.1,281.6 Z"/><path class="region" data-name="Костромская область" d="M 326.5,248.7 L 325.0,246.8 L 323.8,248.1 L 322.7,247.1 L 320.6,248.1 L 318.6,246.5 L 316.3,247.7 L 315.2,246.9 L 311.6,249.4 L 309.0,246.7 L 306.8,246.7 L 307.5,245.2 L 305.2,241.2 L 300.8,243.8 L 294.4,241.9 L 294.0,237.6 L 291.1,237.9 L 292.3,236.0 L 290.5,237.3 L 288.8,236.0 L 291.9,233.0 L 287.9,230.5 L 287.3,225.5 L 284.0,227.6 L 277.3,222.3 L 280.5,220.2 L 282.8,221.0 L 284.9,218.4 L 292.3,218.3 L 293.9,214.9 L 296.7,215.5 L 299.2,213.3 L 304.6,216.8 L 306.2,216.0 L 305.9,214.5 L 308.0,214.2 L 307.1,216.9 L 309.3,218.3 L 308.4,221.0 L 311.0,221.4 L 311.0,223.4 L 312.6,223.3 L 311.4,224.5 L 313.3,224.9 L 314.3,229.3 L 317.1,233.1 L 319.5,233.9 L 321.8,237.7 L 323.6,236.6 L 325.3,238.2 L 328.4,236.0 L 331.3,239.8 L 328.6,241.5 L 329.3,242.7 L 327.5,243.9 L 328.3,245.6 L 326.5,248.7 Z"/><path class="region" data-name="Краснодарский край" d="M 139.6,334.3 L 134.6,333.9 L 133.3,328.4 L 132.2,329.8 L 127.4,330.0 L 125.6,331.7 L 122.5,326.4 L 117.4,327.2 L 120.3,310.0 L 118.2,296.2 L 120.0,291.6 L 118.9,287.4 L 121.5,284.9 L 127.1,283.0 L 143.4,281.5 L 145.6,282.1 L 152.9,289.0 L 151.0,290.5 L 152.5,292.3 L 149.1,293.8 L 151.3,296.2 L 153.7,295.2 L 157.6,301.6 L 155.0,303.5 L 155.9,304.7 L 153.6,307.5 L 156.3,312.5 L 157.4,312.5 L 155.3,313.8 L 153.1,318.9 L 151.6,318.7 L 150.0,316.1 L 148.1,317.4 L 145.9,321.2 L 147.7,322.8 L 145.7,326.2 L 146.8,328.0 L 144.1,329.2 L 142.5,328.3 L 141.9,332.6 L 139.7,332.4 L 139.6,334.3 Z M 136.2,325.0 L 139.4,320.4 L 140.4,316.1 L 138.0,313.2 L 138.0,310.0 L 133.3,308.5 L 131.2,303.6 L 129.9,304.4 L 130.4,307.7 L 132.7,312.0 L 134.4,312.8 L 135.2,310.1 L 135.4,312.6 L 137.3,313.6 L 135.0,316.8 L 134.0,316.1 L 129.7,318.3 L 129.9,321.2 L 128.6,322.1 L 127.4,321.6 L 127.3,319.0 L 125.0,320.7 L 126.3,324.8 L 125.4,326.1 L 129.0,326.5 L 136.6,319.8 L 138.0,321.2 L 135.2,323.8 L 136.2,325.0 Z"/><path class="region" data-name="Красноярский край" d="M 587.1,177.7 L 585.3,179.6 L 582.8,179.6 L 580.6,177.3 L 580.6,174.7 L 582.3,172.9 L 584.9,172.9 L 587.2,177.5 Z M 646.1,145.9 L 644.9,147.6 L 642.3,148.0 L 640.4,146.7 L 639.8,144.5 L 641.3,142.6 L 643.7,142.1 L 645.8,143.4 L 646.1,145.6 Z M 610.1,146.1 L 606.4,147.5 L 603.8,145.6 L 603.5,143.2 L 605.2,141.6 L 607.3,141.7 L 609.6,143.3 L 610.2,145.7 Z M 605.1,117.3 L 602.9,119.0 L 598.7,117.6 L 596.6,114.5 L 596.4,111.6 L 598.4,110.3 L 600.8,110.8 L 605.2,117.0 Z M 617.7,105.5 L 615.3,107.3 L 612.0,107.0 L 608.8,105.1 L 608.1,102.8 L 610.3,100.8 L 613.8,100.9 L 616.9,103.0 L 617.8,105.3 Z M 605.8,164.9 L 603.9,167.0 L 600.1,166.9 L 600.1,171.6 L 597.8,175.5 L 595.7,176.4 L 593.2,175.1 L 592.1,169.1 L 594.0,166.7 L 596.9,165.7 L 594.8,163.0 L 595.4,160.9 L 597.1,159.9 L 601.8,160.5 L 605.1,162.5 L 605.8,164.7 Z M 639.5,151.9 L 637.1,153.7 L 634.5,153.2 L 634.2,156.0 L 629.1,160.0 L 624.5,159.3 L 622.0,157.0 L 622.0,154.1 L 625.5,151.1 L 633.4,151.9 L 633.3,149.5 L 635.2,148.0 L 638.3,148.8 L 639.6,151.5 Z M 711.0,174.5 L 710.4,185.2 L 708.6,188.0 L 706.2,188.6 L 704.6,191.7 L 698.0,196.7 L 703.5,199.1 L 703.7,200.4 L 699.9,204.2 L 701.9,205.9 L 697.5,209.0 L 699.7,210.7 L 698.8,212.2 L 700.7,212.0 L 700.7,218.4 L 703.3,220.5 L 702.2,222.2 L 704.7,222.8 L 706.7,225.3 L 707.7,235.0 L 711.1,236.7 L 710.8,238.8 L 700.4,246.1 L 701.5,249.1 L 698.4,249.8 L 697.0,252.2 L 698.3,254.5 L 697.4,258.1 L 692.4,257.2 L 691.1,259.8 L 686.0,262.0 L 684.2,261.3 L 682.7,263.6 L 686.5,271.1 L 686.7,292.0 L 682.8,294.3 L 682.2,296.1 L 679.9,296.4 L 683.6,299.4 L 684.3,303.8 L 683.2,307.7 L 685.5,310.3 L 685.0,314.9 L 688.2,317.1 L 682.6,323.6 L 684.1,325.9 L 682.4,325.5 L 681.3,329.9 L 683.8,332.2 L 686.2,331.5 L 686.3,330.4 L 690.9,334.1 L 692.6,333.4 L 694.6,335.1 L 696.1,334.1 L 697.1,336.8 L 693.4,337.4 L 691.4,339.2 L 687.0,337.3 L 687.8,339.6 L 686.0,344.2 L 687.6,346.2 L 687.0,347.3 L 685.7,346.8 L 685.7,350.0 L 683.9,350.5 L 686.2,355.9 L 688.3,356.9 L 688.1,358.6 L 686.1,360.1 L 686.0,364.9 L 682.9,367.7 L 683.4,369.9 L 675.8,374.6 L 677.5,377.0 L 674.8,378.3 L 673.7,381.5 L 674.9,387.6 L 680.6,390.1 L 680.7,395.4 L 677.6,395.0 L 675.6,397.6 L 677.0,400.6 L 678.8,401.0 L 679.7,405.4 L 675.7,408.9 L 675.9,411.5 L 673.5,412.4 L 671.7,410.0 L 669.5,410.6 L 670.2,408.7 L 666.1,406.5 L 664.9,403.7 L 665.8,403.1 L 663.6,402.5 L 662.2,404.2 L 660.0,404.2 L 660.3,410.3 L 649.6,418.6 L 649.7,420.5 L 647.4,421.6 L 648.1,427.1 L 646.6,428.2 L 644.1,425.9 L 642.2,418.6 L 639.5,418.2 L 637.4,422.1 L 634.1,422.8 L 626.9,420.6 L 621.3,431.0 L 623.6,432.1 L 621.9,433.9 L 624.3,434.8 L 624.3,440.4 L 621.9,440.2 L 621.7,442.8 L 619.9,444.7 L 618.3,443.4 L 616.8,446.9 L 615.2,447.5 L 615.6,454.1 L 613.3,454.9 L 613.2,459.6 L 611.2,464.5 L 607.6,463.4 L 603.8,466.7 L 610.7,477.4 L 608.7,478.2 L 607.2,476.5 L 605.9,478.7 L 603.0,477.3 L 600.1,479.1 L 598.8,477.5 L 593.8,478.6 L 594.3,480.0 L 592.1,484.2 L 588.9,484.8 L 583.7,492.5 L 576.2,496.4 L 569.5,496.0 L 567.5,494.0 L 559.8,492.2 L 557.7,487.6 L 562.0,483.0 L 565.2,483.1 L 567.6,480.0 L 568.1,476.7 L 570.5,476.6 L 572.5,474.0 L 570.3,470.7 L 569.9,466.9 L 571.7,464.2 L 570.4,458.0 L 568.2,455.5 L 568.9,452.9 L 565.8,451.4 L 566.2,449.3 L 564.3,447.6 L 559.7,448.7 L 559.3,447.4 L 556.9,447.4 L 555.6,446.0 L 555.8,443.2 L 553.1,441.0 L 560.5,436.6 L 559.2,430.2 L 556.9,428.7 L 556.4,424.9 L 558.4,424.1 L 557.7,422.7 L 559.5,419.0 L 558.1,418.2 L 560.0,417.5 L 561.8,414.1 L 563.1,414.8 L 564.1,412.7 L 565.7,413.1 L 566.6,409.3 L 558.7,404.3 L 558.8,398.7 L 563.2,394.4 L 566.6,393.4 L 566.2,389.4 L 561.2,388.7 L 560.1,382.6 L 558.0,381.7 L 558.1,378.9 L 555.5,377.2 L 542.8,374.3 L 542.3,373.0 L 545.2,368.4 L 544.0,360.6 L 554.6,357.8 L 554.6,356.6 L 557.1,355.7 L 556.7,353.9 L 550.5,349.0 L 550.7,343.4 L 559.9,336.1 L 562.8,330.3 L 561.2,329.7 L 559.8,326.2 L 561.6,325.8 L 563.9,322.4 L 567.0,321.6 L 568.0,318.7 L 568.6,310.9 L 565.1,310.8 L 564.8,307.9 L 561.2,307.0 L 564.7,300.6 L 563.3,295.4 L 560.7,294.1 L 560.6,290.8 L 562.6,289.4 L 561.4,285.0 L 563.6,282.9 L 560.1,273.3 L 562.8,270.0 L 561.3,264.1 L 564.5,264.6 L 567.8,260.0 L 568.7,256.6 L 570.3,255.8 L 569.3,250.2 L 570.5,249.1 L 567.8,247.5 L 569.1,245.7 L 568.5,244.0 L 567.0,246.2 L 563.9,246.0 L 563.6,244.2 L 559.5,242.2 L 559.5,237.6 L 557.8,236.4 L 558.1,233.8 L 561.0,232.6 L 561.4,231.2 L 562.2,232.0 L 566.6,229.1 L 569.4,230.3 L 568.6,229.1 L 570.1,227.6 L 571.1,222.0 L 566.7,216.1 L 568.6,213.0 L 571.3,213.9 L 572.7,211.2 L 574.3,211.2 L 568.7,204.2 L 570.5,201.0 L 570.0,192.8 L 573.1,185.2 L 582.7,187.4 L 598.1,181.6 L 599.2,179.2 L 616.3,169.8 L 621.8,170.4 L 632.0,167.8 L 656.8,150.0 L 653.1,145.8 L 652.4,139.8 L 640.0,135.5 L 634.1,127.3 L 636.2,123.8 L 636.5,120.2 L 642.8,112.5 L 637.0,109.5 L 637.2,106.9 L 639.9,105.8 L 643.6,106.1 L 646.4,108.2 L 654.1,107.3 L 656.5,108.2 L 662.5,116.0 L 660.4,121.6 L 664.4,123.4 L 667.0,127.9 L 673.5,131.5 L 680.5,139.0 L 681.4,142.1 L 688.0,146.6 L 688.3,156.8 L 690.2,161.2 L 692.6,162.8 L 698.0,162.2 L 704.1,164.2 L 708.1,167.4 L 710.9,174.2 Z"/><path class="region" data-name="Курганская область" d="M 412.6,384.3 L 411.0,379.2 L 411.8,377.5 L 407.7,375.6 L 406.9,374.5 L 408.0,371.3 L 404.9,368.1 L 402.6,368.1 L 401.5,365.5 L 400.1,365.8 L 400.0,361.2 L 396.9,358.4 L 397.9,358.2 L 399.2,351.1 L 395.2,350.0 L 392.3,352.7 L 389.3,348.1 L 387.5,348.9 L 387.2,347.1 L 383.2,345.9 L 383.0,344.4 L 378.2,345.4 L 376.8,347.2 L 376.6,353.3 L 374.6,355.3 L 374.9,356.8 L 371.9,355.3 L 371.4,356.8 L 370.0,356.4 L 369.5,359.8 L 368.2,360.4 L 367.2,358.9 L 366.5,361.7 L 365.0,362.4 L 368.4,365.0 L 368.3,366.6 L 372.2,368.2 L 371.6,370.4 L 368.6,371.9 L 369.1,374.6 L 372.6,375.7 L 372.8,377.1 L 374.1,376.2 L 378.9,378.0 L 381.4,379.3 L 382.3,381.4 L 383.9,379.0 L 386.0,379.9 L 386.5,378.9 L 387.8,380.5 L 390.2,380.3 L 389.6,381.4 L 406.8,386.7 L 408.1,383.8 L 411.0,385.5 L 412.6,384.4 Z"/><path class="region" data-name="Курская область" d="M 206.0,252.5 L 203.0,250.6 L 200.1,254.6 L 199.7,250.9 L 195.3,245.6 L 193.8,246.6 L 189.8,244.0 L 188.2,239.1 L 184.9,239.2 L 183.0,237.4 L 182.9,235.3 L 184.1,234.8 L 183.3,233.1 L 184.9,232.1 L 182.9,230.0 L 181.5,225.1 L 184.8,223.9 L 185.6,221.3 L 187.9,223.4 L 190.2,222.2 L 189.9,221.3 L 193.4,223.2 L 194.4,222.0 L 195.3,223.3 L 197.5,222.6 L 197.5,223.9 L 201.0,226.4 L 199.1,228.6 L 203.5,232.4 L 202.5,235.0 L 203.9,240.8 L 203.2,243.4 L 204.5,243.4 L 205.6,245.0 L 204.9,247.2 L 207.9,250.4 L 206.0,252.5 Z"/><path class="region" data-name="Ленинградская область" d="M 305.1,165.6 L 302.7,167.1 L 298.2,165.8 L 296.6,167.7 L 289.2,170.8 L 289.7,172.9 L 286.5,174.5 L 287.1,175.7 L 284.3,176.6 L 283.8,175.3 L 281.7,177.2 L 279.1,174.9 L 276.6,174.9 L 276.7,171.8 L 275.1,170.8 L 274.8,168.6 L 276.4,166.3 L 274.6,165.0 L 274.9,162.2 L 270.6,162.4 L 269.2,161.1 L 271.6,156.0 L 269.6,155.8 L 269.6,153.9 L 266.0,155.1 L 264.3,154.7 L 264.8,153.1 L 263.7,152.4 L 258.8,152.7 L 257.5,149.0 L 253.5,150.4 L 252.3,148.8 L 252.7,145.1 L 255.2,141.6 L 253.0,137.1 L 254.6,134.8 L 253.3,132.6 L 259.8,133.3 L 261.3,130.0 L 259.3,123.9 L 261.9,119.2 L 268.2,123.9 L 274.2,124.3 L 287.2,128.5 L 286.1,131.0 L 289.8,153.5 L 295.4,154.4 L 295.9,156.8 L 298.0,156.4 L 296.7,154.4 L 298.4,153.7 L 300.8,157.2 L 300.3,159.1 L 303.3,159.7 L 305.0,163.4 L 303.3,164.5 L 304.5,165.3 Z M 271.8,146.7 L 272.2,144.5 L 273.9,144.2 L 274.8,142.2 L 274.9,137.7 L 273.3,136.0 L 270.2,139.7 L 270.6,142.5 L 269.2,142.6 L 270.9,143.6 L 268.8,144.4 L 271.8,146.7 Z"/><path class="region" data-name="Липецкая область" d="M 221.7,264.3 L 222.7,255.6 L 231.7,251.6 L 232.7,247.6 L 228.4,245.6 L 229.3,242.3 L 227.3,240.5 L 225.6,242.1 L 223.8,240.9 L 222.6,243.1 L 220.4,243.5 L 217.6,238.6 L 214.6,240.7 L 212.2,240.6 L 210.6,245.0 L 207.3,244.1 L 204.8,246.7 L 206.8,249.2 L 210.9,251.2 L 211.0,254.2 L 213.7,255.2 L 213.9,259.8 L 216.4,261.8 L 217.5,264.8 L 221.7,264.5 Z"/><path class="region" data-name="Луганская Народная Республика" d="M 174.3,266.5 L 174.3,268.7 L 171.6,269.6 L 172.6,271.3 L 171.8,272.8 L 169.2,273.6 L 167.4,277.6 L 166.1,277.7 L 166.1,284.4 L 164.6,285.9 L 167.7,291.1 L 173.9,289.9 L 173.6,288.2 L 174.7,288.6 L 176.5,286.2 L 176.0,284.5 L 179.4,283.8 L 179.7,285.4 L 181.1,285.6 L 180.5,281.5 L 186.1,283.7 L 187.4,280.8 L 189.7,280.3 L 187.4,278.3 L 188.0,271.2 L 185.8,270.1 L 187.0,266.7 L 185.5,265.6 L 185.4,262.5 L 184.4,263.6 L 180.3,263.4 L 179.9,264.7 L 177.2,264.2 L 174.3,266.4 Z"/><path class="region" data-name="Магаданская область" d="M 975.5,194.3 L 976.4,197.5 L 975.3,199.4 L 978.5,201.1 L 978.4,202.9 L 982.8,204.5 L 982.5,206.8 L 985.2,208.3 L 984.6,211.5 L 986.0,212.9 L 990.4,212.3 L 994.2,215.8 L 993.2,220.1 L 996.5,219.8 L 996.1,221.5 L 999.7,223.2 L 1006.0,232.7 L 1007.0,243.8 L 1003.8,244.1 L 1002.8,246.4 L 1000.4,247.1 L 994.5,245.2 L 989.4,240.1 L 986.4,239.7 L 984.3,241.0 L 979.3,249.9 L 981.4,254.3 L 980.7,258.9 L 982.7,262.8 L 981.7,273.8 L 984.9,277.4 L 992.6,275.8 L 995.0,279.1 L 994.7,281.4 L 988.2,290.2 L 984.5,292.8 L 983.8,296.7 L 975.7,304.8 L 970.6,306.0 L 960.2,312.3 L 955.9,313.1 L 951.1,316.9 L 947.1,318.0 L 944.0,310.2 L 942.2,308.9 L 940.3,309.9 L 935.4,307.7 L 933.1,310.6 L 929.1,308.6 L 929.9,303.3 L 932.3,302.7 L 930.5,299.5 L 931.3,297.7 L 927.5,292.6 L 919.2,289.4 L 917.1,289.9 L 917.4,291.6 L 915.6,292.6 L 912.2,292.9 L 913.1,289.1 L 911.2,286.9 L 912.5,285.0 L 906.5,278.8 L 904.6,271.5 L 903.0,270.3 L 905.0,266.9 L 903.8,263.3 L 909.6,262.1 L 910.0,259.1 L 911.5,260.8 L 913.7,260.4 L 912.8,256.3 L 910.0,255.1 L 910.3,252.8 L 913.1,252.9 L 916.2,250.9 L 917.1,247.0 L 919.1,247.0 L 920.4,249.3 L 923.5,248.8 L 922.5,246.6 L 926.0,243.9 L 927.1,240.1 L 929.0,241.0 L 929.8,240.0 L 928.5,238.2 L 929.0,234.6 L 925.7,233.6 L 923.8,229.7 L 926.0,225.5 L 921.9,220.6 L 923.0,218.4 L 924.9,218.0 L 922.0,213.6 L 924.7,212.5 L 927.6,208.9 L 931.5,207.6 L 931.0,205.1 L 934.3,206.3 L 936.4,205.5 L 936.0,201.9 L 938.9,199.3 L 937.1,196.1 L 941.1,195.4 L 944.0,200.8 L 950.9,198.3 L 955.7,199.7 L 959.4,196.5 L 964.4,197.3 L 969.5,194.8 L 971.1,192.3 L 972.5,194.0 L 975.5,194.3 Z"/><path class="region" data-name="Московская область" d="M 254.5,236.1 L 250.8,234.7 L 248.9,236.2 L 247.4,234.6 L 242.3,235.4 L 240.4,233.0 L 238.4,233.7 L 238.3,235.3 L 235.3,234.6 L 236.6,231.2 L 239.0,230.2 L 237.9,226.9 L 239.1,225.4 L 236.5,224.7 L 236.1,220.2 L 238.8,217.4 L 241.5,219.0 L 244.0,217.3 L 244.2,218.4 L 246.1,217.8 L 248.7,219.4 L 250.2,216.4 L 249.4,213.3 L 246.4,216.0 L 244.3,214.4 L 242.6,215.9 L 242.1,213.3 L 239.5,216.0 L 238.4,215.5 L 239.4,213.0 L 235.5,211.2 L 235.4,207.8 L 233.3,206.1 L 233.5,204.8 L 237.5,203.4 L 241.0,199.1 L 244.7,198.4 L 245.8,199.4 L 247.9,197.6 L 248.9,202.6 L 254.8,205.3 L 255.0,207.4 L 257.7,205.8 L 259.5,208.2 L 262.6,208.4 L 261.5,211.4 L 262.6,213.4 L 259.8,215.0 L 254.9,220.9 L 256.4,224.2 L 255.4,225.0 L 256.6,226.6 L 255.9,228.5 L 258.6,230.3 L 254.5,236.0 Z M 245.9,213.7 L 245.0,212.1 L 245.9,213.7 Z M 249.3,212.8 L 249.3,211.6 L 249.3,212.8 Z"/><path class="region" data-name="Мурманская область" d="M 393.5,154.4 L 372.8,150.9 L 365.9,146.0 L 360.3,134.7 L 361.8,116.3 L 360.6,113.1 L 357.1,113.4 L 356.1,111.5 L 358.9,107.8 L 353.7,97.0 L 356.7,93.9 L 367.8,94.2 L 371.2,88.7 L 371.2,84.9 L 375.1,82.0 L 379.9,81.7 L 379.7,79.7 L 382.2,82.0 L 386.2,81.3 L 389.3,83.8 L 392.3,82.6 L 391.7,85.2 L 392.9,86.8 L 395.5,84.9 L 400.5,85.6 L 402.6,88.7 L 402.5,95.2 L 400.6,100.6 L 402.6,112.3 L 400.3,128.8 L 400.8,132.0 L 407.7,136.5 L 394.2,153.5 Z"/><path class="region" data-name="Ненецкий автономный округ" d="M 443.1,167.8 L 435.0,170.1 L 432.1,169.3 L 428.7,164.6 L 428.5,160.4 L 435.1,155.0 L 440.0,154.5 L 442.3,155.5 L 444.4,158.7 L 444.6,164.3 L 443.3,167.6 Z M 493.6,219.9 L 491.6,221.0 L 487.5,219.2 L 486.3,221.0 L 482.1,220.8 L 481.5,222.8 L 479.2,224.0 L 476.4,222.5 L 472.6,225.2 L 464.2,225.5 L 456.9,220.5 L 433.3,199.1 L 427.8,191.8 L 424.6,192.1 L 423.9,191.0 L 422.3,192.7 L 406.3,188.9 L 403.2,185.1 L 398.7,186.5 L 396.6,184.0 L 396.0,178.7 L 394.2,175.8 L 393.1,166.4 L 395.5,157.5 L 407.7,136.5 L 417.4,143.7 L 417.7,146.7 L 421.4,151.2 L 422.9,156.3 L 422.6,159.9 L 419.5,164.1 L 425.4,169.0 L 426.1,171.1 L 437.9,172.0 L 441.9,174.8 L 453.0,177.2 L 456.9,180.2 L 463.6,190.9 L 465.4,191.8 L 470.2,192.8 L 470.8,187.4 L 472.9,186.4 L 474.9,187.1 L 476.6,193.8 L 474.6,200.5 L 477.3,192.5 L 475.4,178.8 L 484.6,176.0 L 486.4,180.1 L 486.6,188.7 L 494.5,198.9 L 498.4,206.6 L 496.3,210.7 L 492.6,211.5 L 491.4,213.4 L 494.2,216.2 L 493.6,219.9 Z"/><path class="region" data-name="Нижегородская область" d="M 316.4,258.7 L 314.5,258.4 L 311.2,260.5 L 307.8,256.5 L 302.1,261.5 L 297.3,257.9 L 294.9,259.7 L 292.5,258.6 L 291.4,260.7 L 292.6,261.7 L 290.3,262.7 L 289.4,266.5 L 284.3,268.1 L 284.1,273.0 L 277.5,274.3 L 276.2,272.7 L 278.2,271.1 L 276.3,270.4 L 273.6,272.1 L 270.0,270.9 L 267.5,273.7 L 265.1,270.5 L 266.2,269.8 L 264.5,267.1 L 265.6,263.8 L 264.6,259.0 L 261.2,258.7 L 258.3,254.5 L 260.9,253.1 L 259.2,251.9 L 258.6,250.1 L 259.7,249.3 L 258.5,248.3 L 264.3,247.5 L 266.7,245.4 L 272.6,246.6 L 273.7,245.3 L 275.6,246.6 L 275.2,244.9 L 276.9,242.3 L 278.9,243.5 L 282.5,240.5 L 284.5,241.6 L 284.5,243.0 L 287.4,238.8 L 294.0,237.5 L 293.5,241.1 L 297.0,243.1 L 300.8,243.8 L 304.2,241.4 L 305.9,241.9 L 307.5,245.2 L 306.8,246.7 L 309.0,246.7 L 311.6,249.4 L 316.0,255.7 L 316.4,258.7 Z"/><path class="region" data-name="Новгородская область" d="M 275.9,187.4 L 273.0,186.8 L 270.6,183.1 L 267.1,183.1 L 266.8,181.1 L 264.3,181.6 L 264.2,177.6 L 262.1,174.9 L 260.1,174.6 L 259.9,176.1 L 256.4,177.2 L 254.4,175.9 L 251.5,177.2 L 250.4,173.9 L 246.1,172.8 L 242.6,169.5 L 241.0,170.0 L 238.9,168.5 L 237.5,163.4 L 241.1,162.0 L 241.6,159.1 L 245.6,159.3 L 245.4,157.5 L 247.8,157.0 L 246.8,152.5 L 248.4,152.4 L 247.9,149.8 L 249.8,148.8 L 250.5,150.0 L 252.9,149.3 L 254.9,150.6 L 257.5,149.0 L 258.8,152.7 L 263.7,152.4 L 264.8,154.9 L 269.6,153.9 L 269.6,155.8 L 271.6,156.0 L 269.2,161.1 L 270.6,162.4 L 274.7,162.1 L 274.7,165.1 L 275.5,164.6 L 276.4,166.3 L 274.8,168.6 L 275.1,170.8 L 276.7,171.8 L 275.7,177.7 L 276.5,178.5 L 274.8,179.2 L 277.3,182.7 L 275.9,187.4 Z"/><path class="region" data-name="Новосибирская область" d="M 523.3,447.1 L 517.2,449.3 L 510.4,447.5 L 508.9,449.5 L 507.6,447.2 L 502.6,449.7 L 500.4,453.0 L 497.6,450.5 L 498.3,449.6 L 495.5,448.5 L 495.1,447.1 L 496.9,445.0 L 494.4,444.9 L 495.5,443.7 L 492.4,441.2 L 492.3,437.3 L 491.1,438.7 L 484.2,439.0 L 481.8,441.1 L 477.5,441.8 L 472.0,440.0 L 470.9,441.6 L 468.6,441.2 L 468.4,439.0 L 465.8,438.6 L 466.3,440.6 L 465.2,440.1 L 464.2,442.1 L 458.0,428.3 L 458.4,426.4 L 460.6,427.5 L 463.5,424.3 L 460.8,424.9 L 458.1,423.4 L 457.2,424.4 L 452.7,424.4 L 455.2,419.2 L 456.7,418.9 L 456.1,414.0 L 454.8,413.5 L 455.8,412.6 L 455.8,406.9 L 458.3,405.6 L 457.9,402.5 L 459.9,403.3 L 459.8,401.6 L 464.5,399.8 L 468.7,401.0 L 467.9,398.6 L 469.0,396.8 L 467.0,396.3 L 471.7,394.2 L 473.5,386.9 L 488.9,394.7 L 495.2,400.9 L 497.4,409.1 L 504.6,410.1 L 505.6,414.9 L 514.6,415.7 L 515.6,414.4 L 517.8,414.6 L 518.6,416.5 L 516.1,418.7 L 517.0,423.9 L 515.0,425.4 L 515.5,426.4 L 517.6,427.4 L 521.5,423.6 L 525.8,424.8 L 524.5,428.8 L 525.5,431.9 L 523.8,433.2 L 525.6,434.9 L 523.7,439.0 L 524.8,441.9 L 523.0,442.6 L 523.5,447.0 Z"/><path class="region" data-name="Омская область" d="M 431.3,383.8 L 430.3,384.3 L 430.9,383.6 Z M 468.7,401.0 L 464.5,399.8 L 459.8,401.6 L 459.9,403.3 L 458.2,402.2 L 458.5,404.3 L 457.4,404.5 L 458.3,405.6 L 455.8,406.9 L 455.8,412.6 L 454.8,413.5 L 456.1,414.0 L 456.7,418.9 L 455.2,419.2 L 452.7,424.4 L 450.2,424.0 L 450.0,425.5 L 446.2,426.4 L 444.5,425.1 L 442.5,426.4 L 441.3,425.6 L 439.4,428.2 L 437.1,424.1 L 432.4,425.1 L 431.8,422.7 L 435.3,419.7 L 436.8,420.8 L 438.6,418.7 L 434.6,418.4 L 433.4,415.4 L 431.0,413.5 L 429.8,414.3 L 430.5,416.0 L 428.3,415.5 L 429.2,413.0 L 430.3,413.1 L 428.3,408.5 L 427.9,412.0 L 425.8,408.9 L 424.6,410.6 L 422.1,408.0 L 420.7,408.7 L 421.1,405.1 L 422.3,406.2 L 425.3,402.2 L 424.2,399.9 L 426.2,396.2 L 426.2,392.9 L 423.8,391.6 L 424.5,390.1 L 427.8,389.1 L 427.0,387.6 L 427.8,385.9 L 429.9,386.4 L 428.1,384.3 L 431.1,385.0 L 432.1,381.0 L 434.2,380.2 L 433.3,379.0 L 436.2,379.0 L 436.9,376.9 L 438.8,378.8 L 441.7,378.2 L 441.4,368.5 L 439.9,367.9 L 438.2,369.5 L 437.1,366.8 L 440.3,365.7 L 440.9,359.9 L 448.1,354.1 L 450.0,357.4 L 447.2,361.0 L 452.5,362.9 L 452.9,364.7 L 456.9,367.1 L 459.9,366.2 L 466.7,369.9 L 474.9,367.2 L 475.9,369.5 L 473.2,369.9 L 473.6,372.2 L 472.0,372.8 L 474.1,376.5 L 472.2,380.4 L 473.5,384.5 L 472.6,391.8 L 471.7,394.2 L 467.0,396.3 L 469.0,396.8 L 467.9,398.6 L 468.8,400.7 Z"/><path class="region" data-name="Оренбургская область" d="M 334.4,398.9 L 333.4,398.5 L 329.0,402.6 L 323.4,400.9 L 320.3,398.2 L 320.8,395.6 L 319.4,394.9 L 315.7,396.9 L 313.3,395.7 L 314.3,393.9 L 310.8,390.0 L 310.3,387.7 L 312.1,385.0 L 311.2,382.2 L 309.3,382.4 L 307.3,379.4 L 305.4,381.6 L 303.3,380.7 L 303.3,376.4 L 299.9,374.1 L 299.1,375.3 L 298.8,372.9 L 288.9,374.0 L 287.1,367.3 L 288.2,366.5 L 286.1,362.5 L 283.2,367.4 L 281.1,367.2 L 281.2,365.5 L 284.1,364.0 L 283.0,362.0 L 283.9,358.1 L 282.2,355.2 L 283.6,353.3 L 283.2,351.2 L 277.6,346.2 L 279.6,342.1 L 275.6,340.1 L 272.9,341.4 L 272.9,339.7 L 270.9,339.1 L 270.9,337.4 L 272.5,337.5 L 270.2,332.6 L 276.7,333.5 L 279.5,330.6 L 281.2,331.0 L 282.7,328.6 L 284.4,329.9 L 286.5,327.7 L 291.1,328.2 L 295.3,323.3 L 302.3,320.7 L 302.0,318.9 L 303.6,317.6 L 306.0,318.3 L 307.0,321.3 L 308.4,320.9 L 307.8,322.4 L 306.6,321.6 L 305.7,323.8 L 307.1,324.3 L 306.5,326.4 L 308.1,326.4 L 306.0,330.0 L 305.5,336.5 L 307.5,339.0 L 306.6,340.8 L 308.4,342.5 L 306.0,347.7 L 307.7,349.0 L 306.2,350.3 L 305.7,349.1 L 306.4,352.0 L 304.4,354.2 L 306.0,356.0 L 309.9,354.3 L 310.4,356.6 L 312.0,357.1 L 309.3,360.2 L 306.3,360.4 L 308.7,361.2 L 307.7,361.3 L 308.8,364.0 L 306.1,365.8 L 306.5,367.8 L 304.7,369.0 L 305.9,369.7 L 307.0,367.8 L 307.6,371.8 L 311.9,372.3 L 313.1,371.2 L 315.0,375.5 L 318.1,377.1 L 323.3,372.1 L 325.0,373.8 L 325.8,371.5 L 326.3,374.9 L 328.7,373.2 L 329.5,375.4 L 332.3,376.2 L 333.8,378.8 L 332.7,380.3 L 329.4,380.8 L 328.6,383.9 L 331.0,387.1 L 329.1,388.2 L 332.3,391.2 L 331.5,393.1 L 334.4,396.3 L 334.1,397.8 Z"/><path class="region" data-name="Орловская область" d="M 210.6,245.0 L 212.1,240.6 L 214.6,240.7 L 217.4,238.7 L 218.3,236.8 L 217.5,236.2 L 219.5,234.7 L 216.2,229.1 L 216.8,220.7 L 208.7,217.7 L 206.6,220.6 L 202.8,218.2 L 202.2,221.6 L 198.2,221.5 L 197.4,223.7 L 201.2,226.9 L 199.1,228.6 L 203.5,232.4 L 202.5,235.0 L 203.9,240.8 L 203.2,243.4 L 204.5,243.4 L 205.0,245.2 L 207.3,244.1 L 210.6,245.0 Z"/><path class="region" data-name="Пензенская область" d="M 259.8,299.7 L 256.7,300.4 L 256.7,298.1 L 254.5,296.7 L 250.0,297.0 L 249.4,294.0 L 247.1,293.7 L 245.8,291.5 L 244.3,292.0 L 244.0,286.7 L 240.3,287.4 L 238.9,282.5 L 236.1,280.6 L 236.5,278.7 L 234.7,278.3 L 239.1,276.7 L 240.5,268.9 L 242.2,266.3 L 241.6,265.0 L 242.8,264.9 L 242.7,262.9 L 245.1,260.8 L 247.6,261.7 L 247.0,263.6 L 248.4,263.2 L 247.4,263.8 L 249.1,264.4 L 248.1,265.0 L 249.2,264.5 L 251.1,267.1 L 252.6,265.6 L 254.1,266.4 L 255.5,269.6 L 254.2,273.0 L 255.7,277.0 L 257.2,278.1 L 258.8,275.7 L 260.8,276.4 L 262.6,278.5 L 262.4,280.4 L 264.6,282.4 L 267.2,282.7 L 265.7,289.1 L 264.2,290.3 L 265.0,294.4 L 259.7,299.7 Z"/><path class="region" data-name="Пермский край" d="M 402.1,284.9 L 391.6,292.7 L 391.0,291.8 L 387.2,292.6 L 384.4,294.7 L 386.0,301.7 L 382.3,305.3 L 383.3,307.3 L 381.6,310.0 L 373.1,310.8 L 371.7,315.4 L 368.6,315.7 L 369.0,314.1 L 367.6,312.5 L 366.2,312.8 L 361.4,319.0 L 355.4,316.8 L 354.6,319.9 L 351.5,323.2 L 346.5,323.3 L 347.0,318.4 L 343.5,317.2 L 343.9,314.5 L 338.7,312.6 L 337.5,307.2 L 335.0,308.5 L 335.8,303.6 L 334.1,302.9 L 335.8,300.6 L 336.6,302.2 L 339.4,300.6 L 341.4,301.5 L 343.3,298.1 L 342.6,297.0 L 344.6,296.4 L 344.0,294.0 L 348.6,290.7 L 349.4,286.2 L 352.5,282.2 L 355.3,281.6 L 356.2,278.8 L 358.1,278.3 L 358.1,276.5 L 357.5,277.1 L 356.2,275.2 L 357.1,272.7 L 365.8,268.1 L 366.7,264.8 L 363.6,263.1 L 361.4,259.5 L 363.6,257.6 L 362.3,253.5 L 365.8,251.2 L 367.5,253.8 L 369.2,252.7 L 370.6,254.8 L 372.4,253.6 L 374.4,256.6 L 372.6,257.9 L 373.7,259.6 L 374.3,260.4 L 376.0,259.2 L 380.1,265.4 L 384.2,263.7 L 385.9,266.3 L 387.7,265.1 L 389.4,267.6 L 392.2,265.4 L 392.9,266.5 L 394.3,265.8 L 404.7,275.1 L 408.7,275.4 L 407.0,278.4 L 404.7,279.3 L 402.1,284.8 Z M 336.0,303.6 L 334.2,302.9 L 335.9,303.6 Z"/><path class="region" data-name="Приморский край" d="M 982.3,488.5 L 980.7,494.1 L 982.0,500.9 L 981.2,512.7 L 974.2,538.8 L 972.4,552.8 L 964.9,565.6 L 958.3,571.6 L 949.1,575.2 L 944.1,575.3 L 938.0,585.0 L 934.6,584.1 L 932.3,580.1 L 930.2,580.2 L 936.2,574.8 L 935.5,568.4 L 933.5,566.9 L 932.1,560.4 L 924.9,551.7 L 929.0,548.3 L 930.6,542.2 L 942.4,541.3 L 941.3,535.0 L 943.2,532.6 L 941.9,530.0 L 943.4,523.0 L 941.6,518.9 L 945.4,515.6 L 943.9,512.3 L 944.9,509.5 L 947.7,508.1 L 948.0,506.6 L 951.8,507.3 L 952.0,509.1 L 954.9,507.0 L 957.7,508.2 L 958.2,506.8 L 960.2,507.2 L 963.3,505.4 L 964.9,501.1 L 963.9,497.6 L 967.8,496.8 L 970.9,490.5 L 969.4,489.7 L 969.6,488.4 L 963.6,489.9 L 964.4,487.6 L 960.9,486.7 L 962.3,483.8 L 964.9,483.0 L 966.6,478.1 L 968.3,478.0 L 970.0,480.2 L 971.4,479.5 L 971.6,482.1 L 974.7,483.0 L 973.3,486.7 L 974.8,487.0 L 974.9,488.9 L 982.2,487.4 Z"/><path class="region" data-name="Псковская область" d="M 231.9,173.1 L 231.4,171.0 L 232.3,168.5 L 234.6,167.9 L 235.1,164.9 L 238.2,165.5 L 237.5,163.4 L 241.1,162.0 L 241.5,159.1 L 245.6,159.3 L 245.4,157.5 L 247.9,156.9 L 246.8,152.2 L 248.4,152.4 L 247.9,149.8 L 249.8,148.8 L 251.4,150.3 L 253.1,149.5 L 252.7,145.1 L 255.2,141.6 L 253.0,137.1 L 254.6,134.8 L 253.3,132.6 L 249.8,131.3 L 243.1,135.3 L 239.5,139.4 L 238.3,137.9 L 234.5,137.8 L 232.5,143.0 L 226.1,144.2 L 227.0,146.3 L 220.9,151.3 L 218.9,151.5 L 218.5,153.3 L 220.1,155.3 L 218.5,156.4 L 220.5,158.4 L 220.8,161.1 L 218.0,161.9 L 217.8,163.3 L 221.0,164.9 L 222.4,167.5 L 220.6,172.6 L 223.6,173.3 L 224.5,176.7 L 226.9,174.3 L 231.9,173.1 Z"/><path class="region" data-name="Республика Адыгея (Адыгея)" d="M 136.2,325.0 L 135.2,323.8 L 138.0,321.2 L 136.6,319.8 L 129.0,326.5 L 125.4,326.1 L 126.3,324.8 L 125.0,320.7 L 127.3,319.0 L 127.4,321.6 L 128.6,322.1 L 129.9,321.2 L 129.7,318.3 L 134.0,316.1 L 135.0,316.8 L 137.3,313.6 L 135.4,312.6 L 135.2,310.1 L 134.4,312.8 L 132.7,312.0 L 130.4,307.7 L 129.9,304.4 L 131.2,303.6 L 133.3,308.5 L 138.0,310.0 L 138.0,313.2 L 140.4,316.1 L 139.4,320.4 L 136.2,325.0 Z"/><path class="region" data-name="Республика Алтай" d="M 547.4,509.4 L 542.4,500.2 L 543.1,495.5 L 541.9,493.0 L 538.1,495.8 L 534.7,492.2 L 536.9,489.1 L 535.4,487.7 L 537.6,484.9 L 540.4,484.6 L 542.0,480.6 L 540.1,480.6 L 537.9,478.1 L 535.6,479.1 L 531.7,474.7 L 527.8,475.5 L 527.8,480.8 L 522.7,481.4 L 520.6,479.4 L 519.4,479.9 L 519.4,482.1 L 514.7,485.4 L 503.9,486.1 L 502.0,488.5 L 500.7,487.2 L 504.8,492.9 L 503.3,494.4 L 499.8,494.0 L 500.7,496.1 L 499.8,499.2 L 505.3,504.1 L 504.3,505.9 L 505.4,510.7 L 508.3,511.2 L 512.9,514.7 L 517.5,511.2 L 519.0,511.8 L 516.8,514.3 L 518.5,515.1 L 519.2,519.5 L 521.5,520.4 L 520.9,521.8 L 522.0,522.8 L 527.2,522.6 L 530.2,519.2 L 535.4,521.0 L 536.3,519.6 L 536.7,521.0 L 538.8,520.7 L 539.1,519.2 L 540.3,520.2 L 543.9,519.0 L 543.6,512.5 L 541.9,511.8 L 544.3,508.9 L 545.3,510.4 L 547.4,509.5 Z"/><path class="region" data-name="Республика Башкортостан" d="M 353.7,351.4 L 351.7,349.1 L 347.1,350.6 L 346.2,349.2 L 342.6,349.3 L 341.3,346.8 L 337.2,345.8 L 336.5,337.4 L 340.3,333.9 L 343.1,334.3 L 345.4,337.3 L 345.6,338.7 L 344.2,338.5 L 342.1,341.2 L 345.9,339.6 L 345.5,342.5 L 346.9,344.1 L 348.2,343.8 L 347.7,341.3 L 348.8,342.2 L 349.5,340.7 L 351.1,341.2 L 350.9,342.4 L 354.0,341.0 L 357.5,342.3 L 357.2,340.5 L 355.4,340.1 L 357.4,338.5 L 356.5,337.4 L 360.9,334.3 L 359.3,332.9 L 357.4,333.4 L 356.5,330.5 L 354.7,330.7 L 352.3,327.4 L 350.2,326.8 L 351.4,323.2 L 346.5,323.3 L 347.0,318.4 L 343.5,317.2 L 343.9,314.5 L 338.7,312.6 L 337.5,307.2 L 329.7,309.6 L 327.4,308.4 L 327.8,314.1 L 319.7,315.4 L 316.7,313.5 L 317.0,318.7 L 310.4,322.5 L 306.0,330.0 L 305.5,336.5 L 307.5,339.0 L 306.6,340.8 L 308.4,342.5 L 306.0,347.7 L 307.7,349.0 L 306.2,350.3 L 305.7,349.1 L 306.4,352.0 L 304.4,354.2 L 306.0,356.0 L 309.9,354.3 L 310.4,356.6 L 312.0,357.1 L 309.3,360.2 L 306.3,360.4 L 308.7,361.2 L 307.7,361.3 L 308.8,364.0 L 306.1,365.8 L 306.5,367.8 L 304.7,369.0 L 305.9,369.7 L 307.0,367.8 L 307.6,371.8 L 311.9,372.3 L 313.1,371.2 L 315.0,375.5 L 318.1,377.1 L 323.3,372.1 L 325.0,373.7 L 326.5,369.2 L 330.7,365.3 L 331.7,366.0 L 335.1,359.6 L 339.0,356.1 L 340.7,356.8 L 343.8,355.4 L 345.7,357.8 L 348.3,353.8 L 353.7,351.5 Z"/><path class="region" data-name="Республика Бурятия" d="M 769.3,456.7 L 768.4,460.7 L 760.1,463.6 L 756.1,470.1 L 747.5,476.6 L 749.3,481.4 L 751.5,482.1 L 751.2,483.6 L 753.1,483.6 L 751.5,489.2 L 747.9,492.6 L 739.5,495.0 L 738.3,497.2 L 735.7,496.3 L 733.1,500.8 L 727.5,503.9 L 725.3,507.9 L 719.0,507.0 L 714.4,510.9 L 711.5,508.8 L 710.3,510.1 L 707.8,509.4 L 705.8,512.7 L 707.5,514.5 L 705.7,515.4 L 705.2,518.6 L 703.5,519.4 L 704.6,521.1 L 709.1,522.7 L 702.9,525.6 L 701.0,528.0 L 701.3,530.5 L 696.8,530.4 L 692.4,526.1 L 688.2,526.3 L 680.3,524.0 L 671.9,526.3 L 669.7,528.5 L 662.1,527.7 L 661.9,526.0 L 656.9,524.7 L 654.0,520.8 L 652.7,511.4 L 646.5,509.9 L 640.2,505.6 L 634.2,504.8 L 633.3,502.9 L 629.4,501.7 L 626.2,497.2 L 624.7,497.0 L 624.7,495.0 L 627.8,491.3 L 627.7,488.3 L 630.1,489.4 L 631.6,486.3 L 639.1,483.2 L 641.4,489.1 L 647.8,493.8 L 652.1,498.4 L 651.7,499.7 L 653.6,498.9 L 657.0,499.9 L 658.5,503.0 L 662.3,505.8 L 662.4,509.9 L 667.1,510.9 L 667.1,515.1 L 670.4,513.0 L 674.0,512.8 L 673.8,508.4 L 682.2,505.3 L 686.9,498.3 L 701.6,485.9 L 709.1,469.1 L 704.9,467.7 L 706.1,465.9 L 706.4,459.1 L 704.7,455.5 L 705.2,453.1 L 706.2,449.4 L 709.3,447.9 L 707.2,447.4 L 703.7,443.2 L 704.3,440.0 L 709.8,437.2 L 712.3,437.4 L 714.4,433.4 L 718.1,435.2 L 722.4,435.0 L 724.7,430.5 L 726.9,433.4 L 729.0,432.5 L 731.5,433.6 L 733.3,431.9 L 735.1,435.6 L 738.9,435.9 L 739.7,435.0 L 742.7,436.9 L 744.5,434.2 L 749.0,433.7 L 750.4,427.6 L 757.9,424.7 L 758.9,426.1 L 754.7,429.8 L 754.0,434.2 L 756.0,434.3 L 757.2,436.0 L 756.5,438.0 L 759.0,442.7 L 760.2,449.8 L 763.8,449.6 L 768.1,453.6 L 769.3,456.7 Z"/><path class="region" data-name="Республика Дагестан" d="M 160.6,408.5 L 165.5,390.9 L 170.9,387.1 L 176.5,386.1 L 177.3,383.8 L 175.5,380.6 L 178.5,380.3 L 180.2,377.4 L 179.4,375.2 L 176.3,373.4 L 178.3,373.4 L 175.7,369.5 L 175.5,365.7 L 170.9,359.3 L 168.8,360.4 L 163.6,359.3 L 162.6,360.0 L 163.5,361.9 L 161.7,362.6 L 159.0,361.4 L 161.3,364.6 L 159.5,365.9 L 162.4,371.0 L 161.1,371.7 L 164.4,373.1 L 164.8,372.3 L 165.2,376.3 L 159.1,377.1 L 155.1,383.2 L 153.1,382.6 L 152.4,380.8 L 150.8,382.0 L 145.6,381.0 L 141.7,382.0 L 144.0,393.2 L 145.8,394.1 L 143.9,402.8 L 144.5,406.2 L 147.0,408.6 L 151.0,407.6 L 154.1,409.2 L 160.7,409.4 Z"/><path class="region" data-name="Республика Ингушетия" d="M 146.5,373.3 L 143.2,373.6 L 142.6,371.8 L 140.7,371.7 L 142.5,368.5 L 143.3,370.8 L 146.2,369.8 L 146.8,365.7 L 145.7,365.2 L 149.0,361.7 L 151.6,367.0 L 146.6,373.3 Z"/><path class="region" data-name="Республика Калмыкия" d="M 191.3,360.1 L 190.1,359.6 L 191.4,360.0 Z M 187.0,372.4 L 185.3,371.5 L 178.3,373.4 L 175.7,369.5 L 175.5,365.7 L 170.9,359.3 L 171.7,357.2 L 168.5,343.9 L 170.3,337.7 L 168.1,333.9 L 167.7,327.8 L 163.0,326.8 L 161.3,325.3 L 163.1,324.1 L 162.0,323.0 L 159.5,323.8 L 158.0,320.6 L 159.8,318.3 L 160.6,320.4 L 162.8,320.0 L 164.0,321.5 L 166.6,319.2 L 167.7,324.9 L 169.9,326.1 L 169.3,331.5 L 171.0,333.6 L 174.2,332.5 L 173.4,334.6 L 174.5,334.9 L 176.3,331.7 L 182.5,332.3 L 188.8,327.9 L 188.5,326.0 L 187.1,327.1 L 183.6,325.8 L 188.0,321.5 L 189.7,322.9 L 192.0,322.7 L 193.1,325.1 L 197.0,321.6 L 197.7,323.6 L 196.2,324.7 L 197.8,326.6 L 200.9,325.8 L 201.4,332.4 L 202.7,333.8 L 200.8,335.1 L 199.7,342.4 L 204.2,343.9 L 204.6,345.6 L 201.1,344.5 L 198.5,350.0 L 199.2,351.2 L 195.0,353.6 L 193.8,355.9 L 189.1,352.9 L 189.3,354.0 L 185.7,356.4 L 184.2,355.6 L 184.6,358.5 L 183.2,358.8 L 183.9,362.5 L 189.3,366.8 L 186.9,369.3 L 187.2,372.5 Z M 183.9,363.4 L 180.4,360.7 L 183.6,363.5 Z"/><path class="region" data-name="Республика Карелия" d="M 321.5,172.3 L 323.6,169.1 L 322.6,167.9 L 326.5,166.8 L 328.1,164.9 L 326.4,161.0 L 328.3,155.7 L 331.2,154.9 L 330.6,154.2 L 333.8,149.8 L 336.1,152.3 L 344.5,149.9 L 346.9,141.1 L 349.4,137.6 L 361.2,127.9 L 361.5,115.1 L 360.4,113.0 L 357.1,113.4 L 356.1,111.5 L 358.9,107.8 L 353.7,97.0 L 343.7,106.7 L 341.9,105.1 L 341.3,106.2 L 336.9,106.7 L 335.7,109.1 L 334.5,108.0 L 332.7,108.8 L 331.4,110.2 L 332.1,112.1 L 327.4,114.2 L 325.3,118.5 L 320.7,118.8 L 319.2,117.7 L 315.9,127.8 L 313.1,131.6 L 306.2,132.2 L 289.7,128.7 L 286.7,129.2 L 286.1,131.0 L 289.8,153.5 L 295.4,154.4 L 295.9,156.8 L 298.0,156.4 L 296.7,154.4 L 298.4,153.7 L 300.8,157.2 L 300.3,159.1 L 303.2,159.5 L 304.9,163.2 L 303.3,164.5 L 314.4,170.0 L 314.1,172.2 L 316.1,174.8 L 321.5,172.3 Z"/><path class="region" data-name="Республика Коми" d="M 489.8,231.0 L 487.1,230.7 L 487.3,233.3 L 480.8,234.6 L 478.7,237.3 L 467.7,237.0 L 460.3,241.8 L 454.5,240.7 L 447.7,244.4 L 443.2,245.2 L 442.1,241.7 L 437.1,242.6 L 436.6,244.5 L 433.8,245.3 L 431.9,251.1 L 429.1,252.0 L 419.8,260.1 L 419.9,262.5 L 417.0,266.0 L 417.7,267.0 L 408.7,275.4 L 404.7,275.1 L 394.3,265.8 L 392.9,266.5 L 392.2,265.4 L 389.4,267.6 L 387.7,265.1 L 385.9,266.3 L 384.2,263.7 L 380.1,265.4 L 376.0,259.2 L 374.3,260.4 L 373.7,259.6 L 372.6,257.9 L 374.4,256.6 L 372.4,253.6 L 370.6,254.8 L 369.2,252.7 L 367.5,253.8 L 365.8,251.2 L 362.3,253.5 L 363.6,257.6 L 361.4,259.5 L 360.3,257.4 L 354.3,258.5 L 354.3,255.8 L 350.9,255.9 L 346.0,252.7 L 339.6,257.1 L 338.3,255.6 L 340.3,254.2 L 338.7,250.7 L 340.8,249.3 L 338.7,246.0 L 343.6,241.3 L 346.5,241.3 L 345.9,239.6 L 349.9,235.1 L 352.0,233.6 L 357.0,236.5 L 362.4,233.1 L 360.9,230.5 L 374.8,222.8 L 371.9,218.0 L 370.2,219.1 L 369.1,217.3 L 364.6,221.1 L 362.1,217.8 L 360.5,219.1 L 359.5,217.9 L 364.9,210.5 L 370.2,210.0 L 369.3,206.6 L 373.7,201.0 L 372.8,191.0 L 382.0,198.0 L 385.0,201.7 L 383.9,202.9 L 384.7,204.3 L 386.5,203.2 L 387.7,205.0 L 389.5,203.9 L 391.0,206.6 L 392.8,205.5 L 395.3,209.6 L 398.7,207.5 L 398.0,206.0 L 400.3,199.2 L 397.5,197.4 L 406.3,188.9 L 422.3,192.7 L 423.9,191.0 L 424.6,192.1 L 427.8,191.8 L 433.3,199.1 L 463.1,225.0 L 472.6,225.2 L 474.7,222.8 L 477.6,222.4 L 479.2,224.0 L 481.5,222.8 L 482.1,220.8 L 486.3,221.0 L 488.3,219.1 L 491.4,220.8 L 487.7,226.0 L 490.6,228.2 L 489.8,230.9 Z"/><path class="region region--active" data-name="Республика Крым" d="M 125.2,284.4 L 117.8,287.1 L 113.3,282.0 L 112.9,279.9 L 107.7,277.8 L 105.4,274.1 L 99.4,272.5 L 96.9,270.0 L 95.8,267.8 L 98.4,267.0 L 99.6,268.3 L 100.9,265.1 L 102.0,265.2 L 101.5,263.7 L 102.6,263.6 L 102.9,254.1 L 101.0,250.0 L 103.0,247.2 L 105.9,247.0 L 110.7,249.3 L 116.4,254.6 L 119.4,254.0 L 120.0,262.8 L 121.2,263.8 L 120.1,268.1 L 121.8,270.1 L 120.0,275.0 L 122.8,275.7 L 127.1,283.0 Z"/><path class="region" data-name="Республика Марий Эл" d="M 315.0,283.9 L 312.3,284.1 L 313.0,283.6 L 311.4,282.7 L 312.3,281.9 L 309.9,281.7 L 310.0,280.6 L 308.1,281.5 L 306.8,279.8 L 305.2,279.9 L 305.2,281.3 L 298.3,281.1 L 297.5,277.3 L 298.7,275.4 L 296.8,272.5 L 298.3,270.8 L 289.1,266.4 L 290.6,264.7 L 290.3,262.7 L 292.6,261.7 L 291.4,260.7 L 291.9,259.0 L 293.2,258.4 L 294.9,259.7 L 297.3,257.9 L 301.9,261.2 L 302.8,265.7 L 307.6,266.4 L 307.7,268.2 L 309.5,269.0 L 311.6,268.3 L 314.0,270.9 L 313.8,272.5 L 317.5,271.2 L 314.9,274.4 L 317.2,276.7 L 315.7,278.5 L 316.9,280.2 L 314.4,282.9 L 315.0,283.9 Z"/><path class="region" data-name="Республика Мордовия" d="M 275.0,284.1 L 273.5,284.7 L 268.5,281.7 L 264.6,282.4 L 262.2,280.1 L 262.6,278.5 L 259.2,275.7 L 257.5,278.0 L 255.7,277.0 L 254.2,273.0 L 255.5,270.6 L 255.0,267.9 L 252.6,265.6 L 251.1,267.1 L 249.2,264.5 L 248.1,265.0 L 249.1,264.4 L 247.4,263.8 L 247.9,263.1 L 247.3,264.0 L 246.7,261.9 L 249.6,261.1 L 249.7,259.2 L 252.2,261.5 L 252.4,258.9 L 250.5,258.5 L 251.2,257.2 L 254.6,259.2 L 255.5,257.8 L 257.2,257.9 L 258.1,256.3 L 257.2,255.1 L 258.7,253.9 L 257.9,255.0 L 259.1,254.6 L 261.2,258.7 L 264.6,259.0 L 265.6,263.8 L 264.5,267.1 L 266.2,269.8 L 265.1,270.5 L 267.5,273.7 L 270.0,270.9 L 273.6,272.1 L 276.2,270.5 L 278.2,271.1 L 276.2,272.9 L 278.4,274.4 L 278.1,275.6 L 279.6,275.1 L 276.4,280.9 L 274.4,281.8 L 275.0,284.1 Z"/><path class="region" data-name="Республика Саха (Якутия)" d="M 837.7,97.7 L 837.2,101.4 L 835.2,102.4 L 832.8,101.4 L 833.0,98.1 L 835.1,96.7 L 837.3,97.2 Z M 722.2,193.6 L 721.7,195.8 L 719.4,197.3 L 717.1,196.9 L 715.8,194.9 L 716.3,192.3 L 718.3,191.0 L 720.7,191.4 L 722.1,193.4 Z M 831.7,98.6 L 830.7,102.6 L 826.8,102.7 L 826.0,100.7 L 827.0,98.4 L 829.3,97.3 L 831.2,98.1 Z M 816.2,116.7 L 817.3,120.0 L 816.3,122.4 L 812.9,124.6 L 810.7,124.3 L 809.8,121.6 L 810.7,119.0 L 813.3,116.4 L 815.9,116.4 Z M 796.5,174.1 L 796.2,177.2 L 793.6,178.6 L 787.9,176.0 L 786.3,173.1 L 787.1,171.1 L 790.1,170.1 L 796.4,173.8 Z M 830.1,115.7 L 831.1,117.9 L 830.2,120.1 L 832.5,120.6 L 833.4,122.9 L 832.6,124.6 L 829.8,125.5 L 828.0,123.9 L 828.6,121.0 L 826.0,120.9 L 824.4,118.4 L 826.8,114.8 L 829.9,115.5 Z M 908.5,140.1 L 909.5,142.4 L 908.7,144.5 L 905.2,147.3 L 902.5,147.2 L 900.8,149.6 L 908.3,155.1 L 914.7,149.0 L 917.6,152.8 L 922.7,154.0 L 922.8,156.1 L 926.4,157.0 L 926.2,158.5 L 928.7,159.7 L 930.8,163.8 L 926.5,166.4 L 919.0,181.0 L 919.9,183.5 L 922.4,183.9 L 920.9,185.4 L 922.1,188.2 L 924.8,190.0 L 930.4,189.2 L 934.1,190.9 L 935.1,196.3 L 938.9,199.3 L 936.0,201.9 L 935.9,205.9 L 931.0,205.1 L 931.5,207.6 L 927.6,208.9 L 924.7,212.5 L 922.1,212.8 L 922.5,215.6 L 923.9,215.4 L 924.9,218.0 L 923.0,218.4 L 921.9,220.6 L 926.0,225.5 L 923.8,229.7 L 925.7,233.6 L 929.0,234.7 L 928.5,238.2 L 929.8,240.0 L 929.0,241.0 L 927.1,240.2 L 926.0,243.9 L 922.4,246.7 L 923.5,248.8 L 920.4,249.3 L 919.1,247.0 L 917.1,247.0 L 916.2,250.9 L 913.1,252.9 L 910.3,252.8 L 910.0,255.1 L 912.8,256.3 L 913.7,260.4 L 911.5,260.8 L 910.0,259.1 L 909.6,262.1 L 903.8,263.3 L 905.0,266.9 L 902.9,270.0 L 904.6,271.5 L 905.9,277.8 L 912.5,285.0 L 911.2,286.9 L 913.1,289.1 L 912.2,298.7 L 910.6,299.4 L 908.5,296.7 L 908.2,299.3 L 907.0,297.4 L 904.1,297.6 L 904.2,301.2 L 902.4,301.1 L 901.7,303.1 L 898.8,301.7 L 897.5,303.5 L 889.9,300.4 L 888.1,300.8 L 888.2,302.7 L 886.9,303.3 L 888.8,308.2 L 887.6,309.9 L 888.7,317.3 L 885.0,321.5 L 885.7,323.1 L 884.3,325.5 L 893.2,343.7 L 892.0,344.1 L 890.9,342.0 L 888.9,344.3 L 889.5,347.0 L 886.4,352.0 L 878.8,353.2 L 878.1,359.6 L 874.6,359.6 L 873.6,361.3 L 870.0,361.1 L 867.8,362.7 L 866.5,362.0 L 863.3,366.3 L 864.1,375.1 L 862.2,375.9 L 864.0,379.0 L 863.2,380.8 L 864.6,381.4 L 859.5,382.0 L 866.3,386.6 L 864.6,388.9 L 865.2,392.6 L 862.2,394.6 L 865.5,395.5 L 869.7,398.9 L 869.1,400.4 L 870.5,402.9 L 868.4,402.4 L 868.5,404.0 L 866.8,403.8 L 866.5,405.5 L 867.4,412.5 L 869.1,414.8 L 858.6,418.1 L 855.8,420.3 L 856.8,422.6 L 854.8,423.7 L 850.3,422.3 L 847.2,423.9 L 846.2,423.2 L 844.9,425.9 L 842.4,424.8 L 837.8,428.6 L 835.1,429.1 L 834.5,427.5 L 832.4,426.9 L 830.5,428.4 L 827.6,426.8 L 825.8,428.4 L 823.1,427.8 L 822.2,428.7 L 816.2,423.4 L 810.1,424.1 L 808.0,422.7 L 806.2,424.8 L 802.3,422.1 L 798.4,423.2 L 796.1,420.2 L 789.8,420.9 L 785.2,424.0 L 783.0,422.6 L 783.3,420.6 L 780.5,417.5 L 780.7,415.2 L 779.4,415.2 L 778.9,416.9 L 777.1,413.9 L 776.9,408.1 L 775.4,403.4 L 772.6,402.4 L 770.4,391.6 L 766.4,389.2 L 765.1,389.6 L 764.7,392.4 L 763.4,391.0 L 762.3,392.5 L 760.1,392.4 L 758.9,391.3 L 759.0,387.5 L 757.4,387.2 L 759.4,385.3 L 757.0,385.4 L 753.6,381.4 L 750.9,381.7 L 747.7,380.0 L 744.4,381.4 L 743.6,385.0 L 741.3,386.2 L 738.8,392.6 L 735.3,395.1 L 735.1,399.7 L 730.5,403.3 L 729.5,402.6 L 729.2,405.7 L 728.3,402.1 L 729.4,399.8 L 726.9,400.2 L 726.5,397.0 L 724.7,400.8 L 722.7,401.7 L 716.3,401.5 L 713.7,405.7 L 709.2,405.1 L 706.1,399.7 L 707.9,396.8 L 710.3,382.6 L 711.8,382.2 L 713.1,376.6 L 707.8,373.8 L 708.3,370.7 L 706.0,365.8 L 708.3,360.1 L 707.6,358.5 L 704.8,358.8 L 703.4,356.8 L 705.8,353.0 L 703.6,345.7 L 701.5,343.1 L 695.9,343.0 L 696.7,339.6 L 699.6,339.1 L 697.6,333.2 L 694.6,335.1 L 692.6,333.4 L 690.7,334.0 L 686.3,330.4 L 686.2,331.5 L 683.8,332.2 L 683.1,330.5 L 681.6,331.3 L 681.1,328.6 L 682.2,328.6 L 682.5,325.4 L 684.1,325.9 L 682.6,323.6 L 688.2,317.1 L 685.0,314.9 L 685.5,310.3 L 683.2,307.7 L 684.3,303.8 L 683.6,299.4 L 679.9,296.4 L 682.2,296.1 L 682.8,294.3 L 686.7,292.0 L 686.5,271.1 L 682.7,263.5 L 684.2,261.3 L 686.0,262.0 L 691.1,259.8 L 692.4,257.2 L 697.4,258.1 L 698.3,254.5 L 697.0,252.2 L 698.4,249.8 L 701.5,249.1 L 700.4,246.1 L 708.4,239.7 L 709.4,240.3 L 711.1,236.7 L 707.7,235.0 L 706.7,225.3 L 704.7,222.8 L 702.2,222.2 L 703.3,220.5 L 700.7,218.4 L 700.7,212.0 L 698.8,212.2 L 699.7,210.7 L 697.6,209.2 L 701.9,205.9 L 699.9,204.2 L 703.7,200.6 L 703.5,199.1 L 698.0,196.7 L 704.6,191.7 L 706.2,188.6 L 708.6,188.0 L 711.8,193.9 L 710.1,199.2 L 712.2,202.3 L 717.9,199.8 L 731.0,199.6 L 741.4,205.6 L 746.5,201.9 L 743.6,193.3 L 745.4,190.1 L 752.5,188.9 L 758.5,190.6 L 767.8,190.7 L 776.7,195.5 L 783.0,211.2 L 785.4,212.6 L 788.3,217.8 L 790.1,215.5 L 789.0,208.7 L 789.9,203.7 L 794.7,201.8 L 797.2,203.8 L 797.1,206.4 L 800.0,207.1 L 803.4,201.7 L 810.3,198.5 L 812.2,192.7 L 811.6,187.7 L 813.0,180.3 L 806.9,176.4 L 803.3,167.0 L 798.6,164.6 L 793.8,164.5 L 786.1,160.3 L 781.6,161.8 L 779.8,159.8 L 778.2,152.2 L 780.7,150.6 L 783.3,151.9 L 784.4,145.6 L 790.4,139.0 L 796.1,137.8 L 802.0,138.9 L 805.4,137.0 L 812.2,137.1 L 814.0,134.6 L 830.8,129.4 L 833.5,130.1 L 835.4,135.8 L 831.2,142.3 L 826.4,144.6 L 815.6,144.2 L 815.1,150.3 L 811.4,154.7 L 810.2,161.0 L 821.9,163.3 L 828.9,171.5 L 841.0,168.5 L 845.3,165.2 L 851.0,163.8 L 855.1,164.3 L 858.8,166.6 L 862.8,165.7 L 872.4,169.3 L 883.8,154.0 L 891.2,149.8 L 896.1,148.9 L 895.2,145.8 L 899.0,141.0 L 908.3,140.0 Z"/><path class="region" data-name="Республика Северная Осетия – Алания" d="M 146.1,369.9 L 146.8,365.7 L 145.7,365.2 L 147.5,362.5 L 149.0,361.7 L 150.9,364.6 L 153.1,362.3 L 149.8,358.0 L 148.7,359.3 L 149.5,360.4 L 146.9,362.6 L 144.4,361.1 L 144.8,359.9 L 141.9,360.9 L 142.0,358.6 L 136.4,359.6 L 134.8,358.6 L 135.7,363.1 L 134.0,363.3 L 134.7,366.0 L 138.7,367.4 L 141.3,370.0 L 142.5,368.5 L 143.3,370.8 L 146.1,369.9 Z"/><path class="region" data-name="Республика Татарстан (Татарстан)" d="M 328.0,314.0 L 319.7,315.4 L 316.7,313.5 L 317.0,318.7 L 312.5,320.8 L 308.1,326.3 L 306.5,326.4 L 307.1,324.3 L 305.7,323.8 L 306.6,321.6 L 307.8,322.4 L 308.4,320.9 L 306.7,320.8 L 306.1,316.3 L 302.8,315.8 L 302.5,314.0 L 303.9,312.9 L 302.8,309.6 L 301.4,309.3 L 302.3,308.5 L 299.0,307.6 L 296.6,309.3 L 296.1,307.5 L 294.1,307.0 L 295.0,304.6 L 291.3,299.3 L 293.2,294.6 L 290.1,293.2 L 288.4,294.8 L 286.2,292.4 L 285.8,289.0 L 283.0,288.4 L 283.5,287.0 L 280.8,288.0 L 279.4,287.2 L 281.3,285.3 L 280.6,284.8 L 283.5,283.7 L 284.4,286.5 L 285.4,285.5 L 284.9,287.0 L 286.1,285.3 L 287.1,286.5 L 288.1,284.8 L 289.7,285.5 L 290.6,282.9 L 288.2,282.4 L 289.3,281.1 L 293.6,282.1 L 294.2,280.6 L 297.8,281.5 L 299.2,280.3 L 300.7,281.5 L 302.1,280.5 L 305.2,281.3 L 305.2,279.9 L 306.8,279.8 L 308.1,281.5 L 310.0,280.6 L 309.9,281.7 L 312.3,281.9 L 311.4,282.7 L 313.0,283.6 L 312.3,284.1 L 314.7,284.1 L 314.6,282.8 L 316.6,283.7 L 314.6,288.1 L 316.4,289.6 L 314.8,290.5 L 314.7,293.0 L 315.6,294.9 L 318.0,295.9 L 315.5,295.1 L 314.9,297.1 L 317.0,297.9 L 316.3,299.0 L 318.2,299.0 L 318.4,300.9 L 320.8,299.5 L 322.5,303.2 L 323.6,301.6 L 323.8,302.8 L 324.8,302.2 L 323.9,299.7 L 327.8,300.0 L 328.8,298.8 L 329.7,300.0 L 326.3,301.3 L 325.5,303.5 L 326.3,305.5 L 327.5,303.2 L 329.3,305.1 L 324.0,306.9 L 327.1,308.9 L 328.0,314.0 Z"/><path class="region" data-name="Республика Тыва" d="M 630.6,488.5 L 627.4,488.8 L 627.6,491.9 L 624.7,495.4 L 624.7,497.2 L 627.3,498.9 L 625.1,502.6 L 621.5,504.2 L 620.0,507.8 L 618.6,507.8 L 616.1,513.4 L 617.6,515.7 L 617.1,518.3 L 619.6,520.9 L 619.2,523.2 L 615.0,528.3 L 614.0,527.1 L 609.8,530.0 L 607.0,527.8 L 603.1,526.6 L 602.1,527.5 L 597.5,524.5 L 594.4,526.0 L 590.0,523.4 L 586.7,523.0 L 584.9,515.2 L 575.3,513.6 L 574.1,512.3 L 574.8,510.6 L 571.5,511.2 L 569.5,508.3 L 568.4,510.3 L 564.3,509.6 L 560.4,512.6 L 556.1,512.1 L 553.5,514.4 L 552.1,513.8 L 546.8,516.3 L 543.3,516.3 L 543.6,512.5 L 541.9,511.8 L 544.3,508.9 L 545.3,510.4 L 547.4,508.7 L 542.4,500.2 L 543.1,495.5 L 541.9,493.0 L 545.6,492.4 L 545.6,494.0 L 547.3,493.5 L 548.9,494.9 L 551.8,492.5 L 553.5,492.8 L 553.1,489.8 L 554.8,487.6 L 557.7,487.6 L 559.8,492.2 L 567.5,494.0 L 569.5,496.0 L 576.2,496.4 L 583.7,492.5 L 588.9,484.8 L 592.1,484.2 L 594.3,480.0 L 593.8,478.6 L 598.8,477.5 L 600.1,479.1 L 603.0,477.3 L 605.9,478.7 L 607.2,476.5 L 608.7,478.2 L 610.5,477.7 L 611.4,475.6 L 615.8,478.0 L 617.7,481.2 L 623.1,483.8 L 623.0,485.6 L 628.0,485.2 L 630.6,488.5 Z"/><path class="region" data-name="Республика Хакасия" d="M 572.4,474.5 L 570.5,476.6 L 568.1,476.7 L 567.6,480.0 L 564.9,483.3 L 562.0,483.0 L 557.6,487.7 L 554.7,487.7 L 553.1,489.9 L 553.0,493.1 L 551.8,492.5 L 548.5,494.9 L 547.3,493.5 L 545.6,494.0 L 545.6,492.4 L 541.7,492.8 L 540.6,494.9 L 538.1,495.8 L 534.7,492.3 L 536.9,489.1 L 535.2,488.1 L 537.6,484.9 L 543.4,483.5 L 549.5,477.3 L 547.5,474.1 L 549.4,470.5 L 547.5,468.7 L 551.1,463.7 L 552.7,463.7 L 551.5,460.8 L 554.2,457.7 L 553.6,456.5 L 552.2,457.0 L 551.7,455.0 L 549.6,456.4 L 547.9,454.6 L 549.4,454.2 L 552.2,449.9 L 551.3,443.0 L 553.1,441.0 L 555.8,443.2 L 555.6,446.0 L 556.9,447.4 L 559.3,447.4 L 559.7,448.7 L 564.3,447.6 L 566.2,449.3 L 565.8,451.4 L 568.9,452.9 L 568.2,455.5 L 570.4,458.0 L 571.7,464.2 L 569.9,466.9 L 570.3,470.7 L 572.4,474.5 Z"/><path class="region region--active" data-name="Ростовская область" d="M 185.4,330.7 L 182.2,332.3 L 176.3,331.7 L 174.5,334.9 L 173.4,334.6 L 174.2,332.5 L 171.0,333.6 L 169.3,331.4 L 169.9,326.1 L 167.7,324.9 L 166.6,319.2 L 164.0,321.5 L 162.8,320.0 L 160.6,320.4 L 160.5,318.6 L 158.0,320.6 L 155.9,318.3 L 154.6,316.5 L 155.3,313.8 L 157.4,312.5 L 155.3,311.1 L 153.7,306.8 L 155.9,304.7 L 155.0,303.5 L 157.6,301.6 L 153.7,295.2 L 151.3,296.2 L 149.1,293.8 L 152.5,292.3 L 151.0,290.5 L 152.9,289.0 L 151.0,286.6 L 152.0,284.7 L 157.6,282.0 L 161.1,284.8 L 163.5,284.0 L 168.5,291.2 L 170.3,289.7 L 173.9,289.9 L 173.6,288.2 L 174.7,288.6 L 176.5,286.2 L 176.0,284.5 L 179.4,283.8 L 179.7,285.4 L 181.1,285.6 L 180.0,283.6 L 180.9,281.3 L 182.5,283.1 L 186.1,283.7 L 187.4,280.8 L 190.1,280.2 L 191.3,283.5 L 194.6,285.3 L 198.2,284.5 L 201.2,285.6 L 202.5,284.3 L 201.1,288.2 L 201.0,294.3 L 194.1,297.7 L 195.8,299.9 L 194.6,305.4 L 191.8,307.0 L 186.6,303.9 L 185.6,305.7 L 184.8,305.0 L 181.9,306.6 L 184.6,310.4 L 181.3,317.4 L 185.4,323.5 L 183.6,325.8 L 184.4,327.0 L 186.0,326.0 L 189.2,326.7 L 185.6,330.6 Z"/><path class="region" data-name="Рязанская область" d="M 257.1,258.0 L 255.5,257.8 L 254.6,259.2 L 251.5,258.3 L 251.2,257.2 L 250.5,258.5 L 252.4,258.9 L 252.2,261.6 L 249.7,259.2 L 249.6,261.1 L 247.6,261.7 L 242.3,256.1 L 239.2,257.9 L 237.1,257.4 L 236.5,253.4 L 231.3,251.8 L 232.6,246.9 L 229.7,246.8 L 227.8,244.7 L 229.0,240.8 L 232.6,238.5 L 232.6,237.0 L 235.4,234.6 L 238.3,235.3 L 238.4,233.7 L 240.1,233.0 L 242.3,235.4 L 247.4,234.6 L 248.9,236.2 L 250.3,235.8 L 249.9,234.7 L 253.3,236.4 L 254.6,235.9 L 254.5,237.5 L 256.2,238.3 L 254.6,239.8 L 257.1,241.5 L 256.4,243.0 L 258.0,243.8 L 257.5,245.4 L 259.7,249.3 L 258.6,250.7 L 260.9,252.7 L 257.3,255.1 L 258.1,256.3 L 257.1,257.9 Z"/><path class="region" data-name="Самарская область" d="M 294.2,326.7 L 294.5,325.7 L 294.3,326.7 Z M 305.4,318.4 L 303.6,317.6 L 302.0,318.9 L 302.3,320.7 L 294.6,323.8 L 294.2,325.7 L 291.2,327.1 L 291.1,328.2 L 286.5,327.7 L 284.4,329.9 L 282.7,328.6 L 281.2,331.0 L 279.5,330.6 L 276.7,333.5 L 270.2,332.6 L 271.4,330.7 L 269.0,326.6 L 270.6,325.9 L 268.6,322.9 L 269.6,319.5 L 268.1,319.4 L 268.4,316.1 L 265.9,315.2 L 267.2,311.9 L 265.5,309.1 L 269.2,308.9 L 269.6,305.7 L 268.3,304.7 L 270.3,303.2 L 270.4,300.7 L 272.1,300.3 L 273.9,302.3 L 277.6,300.3 L 279.7,303.9 L 282.0,302.7 L 286.4,309.0 L 286.7,307.5 L 289.3,308.0 L 291.6,306.4 L 293.6,302.8 L 295.0,304.6 L 294.0,306.9 L 296.1,307.5 L 296.6,309.3 L 299.0,307.6 L 302.3,308.5 L 301.4,309.3 L 302.8,309.6 L 303.9,312.9 L 302.5,314.0 L 302.8,315.8 L 306.1,316.3 L 305.5,318.3 Z"/><path class="region" data-name="Саратовская область" d="M 269.2,334.0 L 268.2,334.4 L 267.9,332.7 L 266.0,334.1 L 262.3,334.0 L 257.8,332.7 L 255.5,330.5 L 253.2,332.9 L 247.1,331.3 L 246.6,329.4 L 241.8,335.5 L 241.8,337.2 L 236.9,336.1 L 236.3,334.1 L 238.9,325.1 L 235.8,323.1 L 237.1,321.7 L 235.2,319.9 L 236.4,316.7 L 232.1,315.4 L 230.8,314.0 L 232.5,313.0 L 232.1,310.5 L 229.3,311.0 L 226.7,307.7 L 230.4,306.2 L 231.6,301.5 L 228.1,296.0 L 226.7,296.6 L 226.1,294.3 L 221.4,291.8 L 221.5,286.6 L 223.2,285.1 L 224.3,280.5 L 234.0,277.6 L 236.5,278.7 L 236.1,280.6 L 238.9,282.5 L 240.3,287.4 L 244.0,286.7 L 244.4,292.1 L 245.8,291.5 L 247.1,293.7 L 249.4,294.0 L 250.0,297.0 L 253.3,296.5 L 256.7,298.0 L 256.3,300.1 L 257.9,301.3 L 257.2,302.7 L 260.5,304.7 L 261.2,306.6 L 263.4,305.6 L 263.1,307.2 L 265.5,306.8 L 267.5,308.6 L 265.5,309.1 L 267.2,311.9 L 265.9,315.2 L 268.8,316.6 L 267.9,317.8 L 268.1,319.4 L 269.6,319.5 L 268.6,322.9 L 270.6,325.9 L 269.0,326.6 L 271.4,330.7 L 269.4,334.1 Z"/><path class="region" data-name="Сахалинская область" d="M 1007.6,488.9 L 1008.1,491.1 L 1006.8,493.2 L 1004.6,493.8 L 1002.7,492.6 L 1001.9,490.2 L 1003.2,488.0 L 1005.3,487.6 L 1007.6,488.9 Z M 1080.4,358.2 L 1081.3,367.6 L 1079.8,377.3 L 1082.7,381.4 L 1083.6,386.7 L 1083.6,397.6 L 1081.3,401.0 L 1084.3,404.8 L 1085.9,413.5 L 1085.0,427.8 L 1082.2,430.1 L 1079.5,429.3 L 1078.3,427.2 L 1080.0,412.6 L 1076.3,403.5 L 1077.4,400.6 L 1071.7,394.8 L 1072.3,392.7 L 1075.9,389.8 L 1076.6,386.9 L 1076.1,385.1 L 1072.1,383.6 L 1070.5,381.4 L 1071.8,378.0 L 1070.4,373.0 L 1072.6,367.3 L 1068.4,365.9 L 1067.1,363.4 L 1068.7,360.5 L 1073.2,359.0 L 1073.5,356.8 L 1080.3,357.5 Z M 1079.9,433.1 L 1080.9,440.1 L 1078.9,452.7 L 1074.7,458.2 L 1074.9,460.8 L 1071.6,466.0 L 1067.5,480.8 L 1071.9,487.5 L 1068.7,497.3 L 1067.1,499.5 L 1062.2,497.7 L 1056.4,497.9 L 1055.2,495.4 L 1054.7,484.8 L 1060.4,478.5 L 1061.8,463.4 L 1071.6,453.3 L 1072.3,444.9 L 1074.7,439.4 L 1074.8,437.7 L 1072.1,434.9 L 1072.4,432.6 L 1075.1,431.2 L 1079.7,432.9 Z M 1017.5,444.6 L 1017.6,447.2 L 1015.3,449.0 L 1005.6,445.3 L 1001.2,448.3 L 1006.8,465.2 L 1013.7,468.1 L 1015.8,470.5 L 1020.3,470.6 L 1026.0,476.7 L 1026.7,483.7 L 1024.0,485.1 L 1019.3,480.7 L 1016.4,481.4 L 1015.4,483.1 L 1017.8,492.3 L 1012.5,494.2 L 1004.8,485.1 L 1003.1,478.0 L 998.9,472.6 L 997.6,466.8 L 989.9,460.0 L 986.6,449.5 L 976.8,435.5 L 976.5,431.5 L 972.6,428.5 L 969.3,428.1 L 959.5,407.2 L 955.4,404.1 L 959.3,397.6 L 953.2,393.7 L 953.0,391.5 L 955.5,387.6 L 958.1,386.4 L 963.5,389.5 L 965.5,393.5 L 975.9,403.4 L 980.3,413.1 L 996.6,429.0 L 1009.1,439.5 L 1014.4,441.4 L 1017.4,444.3 Z"/><path class="region" data-name="Свердловская область" d="M 416.3,343.2 L 419.5,335.3 L 418.1,333.7 L 419.7,323.9 L 414.2,317.6 L 418.1,308.9 L 416.5,306.3 L 421.3,293.6 L 417.9,282.6 L 412.3,277.3 L 413.7,275.5 L 411.8,272.9 L 409.7,273.7 L 407.0,278.4 L 405.1,278.8 L 400.1,286.8 L 391.6,292.7 L 391.0,291.8 L 387.2,292.6 L 384.4,294.7 L 386.0,301.7 L 382.3,305.3 L 383.3,307.3 L 381.6,310.0 L 373.1,310.8 L 371.7,315.4 L 368.6,315.7 L 369.0,314.1 L 367.6,312.5 L 366.2,312.8 L 361.4,319.0 L 357.3,318.2 L 356.7,316.6 L 355.0,317.0 L 354.6,319.9 L 351.3,322.3 L 349.8,326.3 L 354.7,330.7 L 356.5,330.5 L 357.4,333.4 L 361.9,331.7 L 366.5,338.2 L 370.0,339.0 L 369.1,339.9 L 371.5,342.3 L 373.4,340.6 L 376.0,343.4 L 376.8,347.2 L 378.2,345.4 L 383.1,344.4 L 383.2,345.9 L 387.2,347.1 L 387.5,348.9 L 389.3,348.1 L 392.3,352.7 L 395.5,350.0 L 399.2,351.1 L 400.7,353.4 L 401.6,352.7 L 402.7,346.0 L 405.8,343.5 L 405.5,342.0 L 410.4,342.2 L 410.3,343.7 L 412.4,342.4 L 416.3,343.2 Z"/><path class="region" data-name="Смоленская область" d="M 237.5,203.4 L 232.7,205.8 L 227.3,204.7 L 226.1,205.9 L 224.6,205.8 L 222.9,203.1 L 220.9,204.5 L 218.4,199.3 L 211.3,201.5 L 209.6,200.4 L 207.0,201.4 L 204.0,200.2 L 201.9,200.8 L 201.9,197.3 L 204.1,196.0 L 202.2,190.7 L 206.2,189.7 L 206.0,184.7 L 208.4,181.4 L 210.7,181.3 L 210.9,177.2 L 215.0,177.6 L 217.4,174.6 L 223.6,173.3 L 225.2,178.4 L 226.8,178.8 L 226.8,180.8 L 225.7,180.7 L 228.5,183.2 L 227.4,184.0 L 229.4,188.1 L 233.9,190.2 L 237.3,190.2 L 238.4,192.2 L 238.3,196.0 L 240.9,198.5 L 237.5,203.4 Z"/><path class="region" data-name="Ставропольский край" d="M 171.2,359.2 L 170.4,348.8 L 168.5,343.9 L 170.3,337.7 L 168.1,333.9 L 167.7,327.8 L 163.1,326.8 L 161.3,325.3 L 163.1,324.0 L 162.0,323.0 L 159.7,323.9 L 154.6,316.5 L 153.1,318.9 L 151.6,318.7 L 150.0,316.1 L 145.9,321.2 L 147.7,322.8 L 145.7,326.2 L 146.8,328.0 L 144.1,329.2 L 142.5,328.3 L 141.7,329.8 L 141.4,331.8 L 143.1,334.0 L 142.1,335.9 L 145.4,340.0 L 144.7,341.2 L 140.3,340.5 L 140.6,342.6 L 141.9,343.0 L 140.1,345.4 L 144.7,348.2 L 143.9,350.6 L 146.7,353.8 L 149.9,353.6 L 151.0,357.1 L 152.9,357.5 L 150.0,358.2 L 152.8,361.2 L 152.0,363.9 L 153.6,365.0 L 156.3,362.9 L 157.8,366.6 L 161.3,364.6 L 159.0,361.4 L 161.7,362.6 L 163.5,361.9 L 162.6,360.0 L 163.6,359.3 L 166.7,360.4 L 171.0,359.3 Z"/><path class="region" data-name="Тамбовская область" d="M 238.6,277.5 L 242.2,266.3 L 241.6,265.0 L 242.8,264.9 L 242.7,262.9 L 245.7,261.1 L 245.7,259.8 L 242.3,256.1 L 239.2,257.9 L 237.1,257.4 L 236.8,253.8 L 234.6,252.0 L 232.6,252.9 L 230.6,251.6 L 224.7,255.6 L 223.4,254.8 L 221.6,259.8 L 222.1,263.9 L 217.7,264.9 L 219.1,268.2 L 217.1,268.9 L 220.8,272.5 L 221.8,278.1 L 223.5,278.3 L 222.6,280.1 L 223.6,281.2 L 229.7,279.7 L 231.3,278.1 L 238.6,277.5 Z"/><path class="region" data-name="Тверская область" d="M 269.0,209.5 L 268.3,206.0 L 270.7,204.0 L 271.8,199.1 L 272.8,199.9 L 273.2,198.5 L 275.6,200.0 L 276.0,196.5 L 279.7,196.9 L 282.3,190.4 L 280.5,189.0 L 276.2,189.5 L 270.6,183.1 L 267.6,183.3 L 265.9,180.8 L 264.3,181.6 L 264.2,177.6 L 262.1,174.9 L 260.1,174.6 L 259.9,176.1 L 256.4,177.2 L 254.4,175.9 L 251.5,177.2 L 250.4,173.9 L 246.1,172.8 L 242.6,169.5 L 240.9,169.9 L 238.9,168.5 L 238.5,165.5 L 235.1,164.9 L 234.6,167.9 L 232.3,168.5 L 231.4,171.0 L 231.9,173.1 L 226.9,174.3 L 224.6,176.5 L 225.4,178.7 L 226.8,178.8 L 226.8,180.8 L 225.7,180.7 L 228.5,183.2 L 227.4,184.0 L 229.4,188.1 L 233.9,190.2 L 237.3,190.2 L 238.3,196.1 L 240.9,199.2 L 244.7,198.4 L 245.8,199.4 L 247.9,197.6 L 248.9,202.6 L 254.8,205.3 L 255.0,207.4 L 257.7,205.8 L 259.5,208.2 L 262.5,208.2 L 261.5,211.4 L 262.4,213.0 L 262.9,211.4 L 265.7,211.0 L 267.4,209.0 L 268.8,209.6 Z"/><path class="region" data-name="Томская область" d="M 566.0,412.6 L 566.3,408.5 L 563.3,407.7 L 558.7,404.3 L 558.4,402.8 L 558.8,398.7 L 563.2,394.4 L 566.6,393.4 L 566.2,389.4 L 561.2,388.7 L 560.1,382.6 L 558.0,381.7 L 558.1,378.9 L 555.5,377.2 L 542.7,374.1 L 543.3,370.5 L 545.2,368.4 L 544.3,361.6 L 542.0,360.3 L 539.9,356.8 L 537.6,356.3 L 529.5,360.8 L 528.3,358.5 L 523.5,356.8 L 523.7,355.2 L 521.8,353.8 L 518.1,354.2 L 512.9,352.8 L 512.8,349.9 L 504.9,347.9 L 500.4,344.2 L 498.3,348.3 L 495.6,349.3 L 490.4,359.2 L 487.2,358.3 L 482.0,360.8 L 481.0,364.0 L 475.6,366.1 L 475.9,369.5 L 473.2,369.9 L 473.6,372.2 L 472.0,372.8 L 474.1,376.5 L 472.2,380.4 L 473.2,380.8 L 473.5,386.9 L 488.9,394.7 L 495.2,400.9 L 497.4,409.1 L 504.6,410.1 L 505.6,414.9 L 514.6,415.7 L 515.6,414.4 L 517.8,414.6 L 518.6,416.5 L 516.1,418.7 L 517.0,423.9 L 514.9,425.6 L 516.4,426.9 L 517.6,427.4 L 521.5,423.6 L 523.5,423.6 L 524.1,425.0 L 531.5,423.7 L 534.7,424.9 L 534.1,423.7 L 540.0,420.5 L 541.4,422.0 L 543.4,421.2 L 546.0,423.5 L 547.1,423.2 L 546.8,421.9 L 548.2,423.2 L 550.1,422.7 L 550.1,424.4 L 556.1,421.9 L 557.0,423.0 L 559.5,419.0 L 558.1,418.2 L 560.0,417.5 L 561.8,414.1 L 563.7,414.5 L 564.1,412.7 L 566.0,412.6 Z"/><path class="region" data-name="Тульская область" d="M 230.6,240.5 L 230.9,238.7 L 232.6,238.5 L 232.7,236.8 L 235.4,235.1 L 236.6,231.2 L 238.6,231.1 L 237.9,226.9 L 239.1,225.3 L 236.5,224.7 L 236.2,221.1 L 232.3,222.2 L 231.4,220.6 L 228.5,223.1 L 222.9,217.3 L 223.1,219.5 L 219.0,219.0 L 218.0,221.4 L 216.1,222.0 L 217.1,223.8 L 216.4,230.0 L 219.5,234.7 L 217.5,236.2 L 218.3,236.8 L 217.5,238.5 L 220.4,243.5 L 222.6,243.1 L 223.8,240.9 L 225.6,242.1 L 227.3,240.5 L 228.2,241.6 L 230.6,240.5 Z"/><path class="region" data-name="Тюменская область" d="M 475.8,366.9 L 466.7,369.9 L 459.9,366.2 L 456.9,367.1 L 452.9,364.7 L 452.5,362.9 L 447.2,361.0 L 450.0,357.4 L 448.2,354.1 L 440.9,359.9 L 440.3,365.7 L 437.1,366.8 L 438.2,369.5 L 439.9,367.9 L 441.4,368.5 L 441.7,378.2 L 438.8,378.8 L 436.9,376.9 L 436.2,379.0 L 433.3,379.0 L 434.2,380.2 L 432.1,381.0 L 431.1,385.0 L 427.7,384.9 L 429.9,386.4 L 427.8,385.9 L 427.0,387.6 L 427.8,389.1 L 421.3,392.4 L 419.1,387.9 L 419.9,386.3 L 418.0,387.5 L 414.8,383.9 L 414.0,386.0 L 411.7,382.4 L 411.8,377.5 L 409.7,377.4 L 406.9,374.5 L 408.0,371.3 L 404.9,368.1 L 402.6,368.1 L 401.5,365.5 L 400.1,365.8 L 400.0,361.2 L 396.9,358.0 L 397.9,358.2 L 399.2,352.3 L 400.7,353.4 L 402.4,352.0 L 401.2,350.5 L 403.3,347.4 L 402.7,346.0 L 405.8,343.5 L 405.5,342.0 L 410.4,342.2 L 410.3,343.7 L 412.4,342.4 L 416.3,343.2 L 419.5,335.3 L 424.7,338.0 L 426.6,334.8 L 437.6,336.6 L 441.9,333.5 L 447.5,333.9 L 447.0,331.5 L 448.8,331.2 L 450.4,333.4 L 453.6,334.6 L 454.3,336.8 L 457.8,338.9 L 459.4,338.5 L 459.0,340.2 L 462.3,346.0 L 462.4,352.1 L 465.1,353.8 L 463.8,357.0 L 475.6,366.1 Z"/><path class="region" data-name="Удмуртская Республика" d="M 336.0,303.6 L 334.2,302.9 L 335.8,303.4 Z M 341.4,301.4 L 339.4,300.6 L 336.6,302.2 L 335.8,300.6 L 334.1,302.9 L 335.8,303.7 L 334.5,308.7 L 329.5,309.6 L 328.9,308.4 L 326.8,308.8 L 324.0,306.9 L 329.3,305.1 L 327.5,303.2 L 326.3,305.5 L 325.5,303.5 L 326.3,301.3 L 329.7,300.0 L 328.8,298.8 L 327.8,300.0 L 323.9,299.7 L 324.8,302.2 L 323.8,302.8 L 323.6,301.6 L 322.5,303.2 L 320.8,299.5 L 318.4,300.9 L 318.2,299.0 L 316.3,299.0 L 317.0,297.9 L 314.9,296.9 L 315.5,295.1 L 318.0,295.9 L 316.9,294.9 L 319.0,289.5 L 321.0,288.2 L 321.9,289.4 L 324.8,288.1 L 324.7,284.9 L 326.2,282.5 L 328.4,280.8 L 333.1,283.0 L 337.7,279.3 L 338.0,276.6 L 342.4,275.1 L 346.1,280.1 L 347.8,278.9 L 348.9,279.8 L 348.1,281.8 L 351.5,284.0 L 349.4,286.2 L 348.6,290.7 L 344.0,294.0 L 344.6,296.4 L 342.6,297.0 L 343.3,298.1 L 341.3,301.4 Z"/><path class="region" data-name="Ульяновская область" d="M 291.5,306.4 L 289.3,308.0 L 286.7,307.5 L 286.4,309.0 L 282.0,302.7 L 279.7,303.9 L 277.5,300.3 L 273.9,302.3 L 272.1,300.3 L 270.4,300.7 L 270.3,303.2 L 268.3,304.7 L 269.6,306.1 L 268.8,309.1 L 265.5,306.8 L 263.1,307.2 L 263.5,305.7 L 261.2,306.6 L 260.5,304.7 L 257.2,302.7 L 257.9,301.3 L 256.7,300.4 L 259.8,299.7 L 265.0,294.4 L 264.2,290.3 L 267.2,284.0 L 265.9,282.1 L 268.5,281.7 L 274.1,284.7 L 275.0,284.1 L 274.1,282.5 L 275.2,282.4 L 274.4,281.8 L 277.3,279.2 L 277.9,282.6 L 280.8,285.3 L 279.4,287.2 L 280.8,288.0 L 283.5,287.0 L 283.0,288.4 L 285.8,289.0 L 286.2,292.4 L 288.4,294.8 L 290.1,293.2 L 293.2,294.6 L 291.3,299.3 L 293.6,302.9 L 291.6,306.4 Z"/><path class="region" data-name="Хабаровский край" d="M 949.3,361.6 L 949.7,364.8 L 948.3,365.9 L 946.0,365.5 L 945.4,361.9 L 948.3,361.0 Z M 935.3,399.5 L 935.6,401.6 L 934.3,403.2 L 931.2,402.7 L 931.2,398.9 L 934.5,398.7 Z M 944.0,310.2 L 947.1,318.0 L 944.5,323.2 L 942.3,324.4 L 937.5,324.1 L 929.6,329.1 L 923.7,335.7 L 922.9,345.1 L 920.4,351.7 L 921.8,358.2 L 916.1,379.4 L 917.0,383.3 L 908.7,407.6 L 912.5,405.0 L 916.7,397.5 L 924.4,395.4 L 926.9,397.0 L 928.1,402.3 L 930.7,403.9 L 934.7,403.5 L 936.5,399.9 L 939.2,399.0 L 950.5,404.7 L 955.4,404.1 L 959.5,407.2 L 969.3,428.1 L 969.1,434.6 L 970.6,440.4 L 976.6,447.2 L 984.2,470.0 L 981.5,481.5 L 982.2,487.4 L 974.9,488.9 L 974.8,487.0 L 973.3,486.7 L 974.7,483.0 L 971.6,482.1 L 971.4,479.5 L 970.0,480.2 L 968.3,478.0 L 966.6,478.1 L 964.9,483.0 L 962.3,483.8 L 960.9,486.7 L 964.4,487.6 L 963.6,489.9 L 969.6,488.4 L 969.4,489.7 L 970.9,490.5 L 967.8,496.8 L 963.9,497.6 L 964.9,501.1 L 963.3,505.4 L 960.2,507.2 L 958.2,506.8 L 957.7,508.2 L 954.9,507.0 L 952.0,509.1 L 951.8,507.3 L 948.0,506.6 L 943.9,512.3 L 945.4,515.6 L 942.3,518.0 L 940.7,513.7 L 941.3,511.3 L 939.7,509.0 L 942.1,505.5 L 942.4,501.8 L 938.7,498.8 L 939.0,490.1 L 935.6,491.8 L 933.5,490.6 L 931.7,493.1 L 926.9,493.9 L 923.7,493.5 L 922.7,491.3 L 919.8,489.8 L 917.7,490.4 L 916.9,489.3 L 913.9,491.2 L 911.7,489.3 L 910.4,490.2 L 910.9,493.1 L 908.9,492.7 L 906.8,495.4 L 901.0,482.5 L 897.8,481.2 L 896.6,482.7 L 895.4,479.0 L 892.7,479.9 L 892.9,471.3 L 893.9,469.1 L 895.9,468.5 L 893.4,464.5 L 899.6,460.1 L 901.6,453.6 L 905.9,451.0 L 903.3,448.9 L 902.2,445.9 L 913.7,444.5 L 913.3,440.8 L 910.9,438.6 L 911.1,433.1 L 909.7,432.5 L 909.9,431.0 L 906.2,429.9 L 903.0,434.2 L 899.6,434.1 L 896.2,440.3 L 890.5,442.7 L 889.5,444.7 L 888.2,443.4 L 885.7,445.0 L 882.7,438.3 L 878.8,439.6 L 874.2,439.2 L 874.9,433.5 L 877.5,431.9 L 876.3,427.9 L 880.4,422.3 L 880.6,419.8 L 882.8,418.4 L 881.5,416.6 L 883.3,416.0 L 883.1,414.2 L 884.9,412.8 L 879.2,410.1 L 875.6,413.1 L 869.1,414.8 L 867.4,412.5 L 866.5,405.5 L 866.8,403.8 L 868.5,404.0 L 868.4,402.4 L 870.5,403.0 L 869.1,400.4 L 869.7,398.9 L 865.5,395.5 L 862.2,394.7 L 865.2,392.6 L 864.6,388.9 L 866.3,386.6 L 859.5,382.0 L 864.6,381.4 L 863.2,380.8 L 864.0,379.0 L 862.2,375.9 L 864.1,375.1 L 863.0,370.1 L 864.3,369.4 L 863.3,366.3 L 864.8,363.8 L 866.5,362.0 L 867.8,362.7 L 870.0,361.1 L 873.6,361.3 L 874.6,359.6 L 878.1,359.6 L 878.8,353.2 L 886.4,352.0 L 889.5,347.0 L 888.9,344.3 L 890.9,342.0 L 892.0,344.1 L 893.2,343.7 L 884.3,325.5 L 885.7,323.1 L 885.0,321.5 L 888.7,317.3 L 887.6,309.9 L 888.8,308.2 L 886.8,304.0 L 888.4,300.6 L 891.7,300.4 L 897.5,303.5 L 898.8,301.7 L 901.7,303.1 L 902.4,301.1 L 904.2,301.2 L 904.1,297.6 L 907.0,297.4 L 908.2,299.3 L 908.6,296.7 L 910.6,299.4 L 911.6,299.1 L 913.0,292.7 L 917.0,291.9 L 917.2,289.9 L 921.4,289.6 L 927.5,292.6 L 931.3,297.8 L 930.5,299.5 L 932.3,302.7 L 929.9,303.3 L 928.8,308.1 L 930.3,310.1 L 933.1,310.6 L 935.6,307.7 L 944.0,310.1 Z"/><path class="region" data-name="Ханты-Мансийский автономный округ – Югра" d="M 557.1,355.7 L 556.7,353.9 L 550.5,349.0 L 550.7,342.9 L 548.6,337.3 L 545.2,337.8 L 543.2,332.9 L 540.0,330.8 L 537.1,331.4 L 535.2,328.4 L 535.1,324.2 L 533.0,323.8 L 527.1,326.3 L 525.7,328.5 L 519.3,326.0 L 514.9,326.3 L 510.0,315.5 L 507.8,315.8 L 505.6,312.3 L 498.3,310.0 L 497.6,307.6 L 493.6,305.4 L 492.7,301.2 L 489.7,301.9 L 483.7,300.1 L 486.0,293.6 L 483.3,291.8 L 483.5,287.0 L 485.8,285.5 L 484.4,282.3 L 480.2,279.2 L 480.2,277.7 L 477.9,277.0 L 478.1,278.8 L 476.6,279.7 L 474.8,277.6 L 469.5,278.7 L 466.3,273.5 L 469.1,270.3 L 466.0,267.1 L 450.8,261.7 L 451.9,259.8 L 448.5,255.5 L 451.1,254.4 L 455.9,248.4 L 454.4,246.5 L 455.4,240.8 L 443.1,245.2 L 442.2,241.7 L 437.1,242.6 L 436.6,244.5 L 433.8,245.3 L 431.9,251.1 L 429.1,252.0 L 419.8,260.1 L 419.9,262.5 L 417.0,266.0 L 417.7,267.0 L 412.8,270.8 L 411.8,272.9 L 413.7,275.5 L 412.3,277.3 L 417.8,282.4 L 421.2,292.0 L 420.9,296.2 L 419.3,297.6 L 416.5,306.3 L 418.1,308.9 L 414.2,317.6 L 419.7,323.9 L 418.1,333.7 L 421.6,337.2 L 424.7,338.0 L 426.6,334.8 L 438.8,336.3 L 441.9,333.5 L 447.5,333.9 L 447.0,331.5 L 448.8,331.2 L 450.4,333.4 L 453.6,334.6 L 454.3,336.8 L 457.8,338.9 L 459.4,338.5 L 459.0,340.2 L 462.3,346.0 L 462.4,352.1 L 465.1,353.8 L 463.8,357.0 L 475.6,366.1 L 481.0,364.0 L 482.0,360.8 L 484.7,359.2 L 490.4,359.2 L 495.6,349.3 L 498.3,348.3 L 500.4,344.2 L 504.9,347.9 L 512.8,349.9 L 512.9,352.8 L 518.1,354.2 L 521.8,353.8 L 523.7,355.2 L 523.5,356.8 L 528.3,358.5 L 529.5,360.8 L 537.9,356.2 L 539.9,356.8 L 542.0,360.3 L 544.0,360.6 L 554.6,357.8 L 554.6,356.6 L 557.1,355.7 Z"/><path class="region" data-name="Херсонская область" d="M 121.8,270.1 L 123.1,268.5 L 127.1,269.6 L 127.0,265.3 L 129.0,263.9 L 128.4,261.0 L 129.9,260.0 L 129.4,259.1 L 131.9,259.6 L 133.0,256.3 L 136.5,253.7 L 134.7,252.5 L 136.4,250.6 L 134.2,245.7 L 135.3,244.5 L 132.7,243.1 L 132.9,240.7 L 130.4,241.4 L 129.2,243.6 L 126.9,242.1 L 126.1,244.1 L 123.6,243.0 L 123.7,244.2 L 120.3,238.3 L 116.7,237.1 L 112.7,238.0 L 110.5,232.0 L 107.8,236.4 L 109.7,246.3 L 110.7,249.3 L 116.4,254.6 L 119.4,254.0 L 120.0,262.8 L 121.2,263.8 L 120.2,268.2 Z"/><path class="region" data-name="Челябинская область" d="M 369.1,374.6 L 363.3,372.4 L 361.5,373.8 L 362.0,371.9 L 359.3,370.0 L 358.1,370.6 L 358.2,369.3 L 355.9,368.7 L 355.8,366.6 L 353.8,367.7 L 352.0,366.3 L 352.3,368.9 L 348.8,369.2 L 352.4,373.7 L 350.1,372.2 L 348.0,374.0 L 349.4,376.7 L 350.8,376.9 L 352.4,380.7 L 351.5,382.1 L 344.1,376.8 L 339.6,378.7 L 339.2,383.9 L 335.3,384.2 L 329.3,382.3 L 329.4,380.8 L 332.7,380.3 L 333.8,378.8 L 332.3,376.2 L 329.5,375.4 L 328.7,373.2 L 326.3,374.9 L 326.5,372.5 L 325.3,371.3 L 326.5,369.2 L 330.7,365.3 L 331.7,366.0 L 335.1,359.6 L 339.0,356.1 L 340.7,356.8 L 343.8,355.4 L 345.7,357.8 L 348.3,353.8 L 353.7,351.5 L 351.7,349.1 L 347.1,350.6 L 346.2,349.2 L 341.8,348.9 L 341.3,346.8 L 337.4,346.5 L 336.5,337.4 L 338.1,337.0 L 338.5,335.0 L 340.8,333.7 L 343.1,334.3 L 345.6,338.7 L 344.2,338.5 L 342.1,341.2 L 345.9,339.6 L 345.5,342.5 L 346.9,344.1 L 348.2,343.8 L 347.7,341.3 L 348.8,342.2 L 349.5,340.7 L 351.1,341.2 L 350.9,342.4 L 354.0,341.0 L 355.7,342.3 L 357.9,342.0 L 355.4,340.1 L 357.4,338.5 L 356.7,337.0 L 360.9,334.3 L 359.4,332.5 L 360.2,333.2 L 361.5,331.6 L 366.5,338.2 L 370.0,339.0 L 369.1,339.9 L 371.5,342.3 L 373.0,340.5 L 374.9,342.0 L 377.2,347.8 L 374.9,356.8 L 371.9,355.3 L 371.4,356.8 L 370.0,356.4 L 369.5,359.8 L 368.2,360.4 L 367.2,358.9 L 366.3,362.0 L 365.0,362.5 L 368.4,365.0 L 368.3,366.6 L 372.2,368.2 L 371.6,370.4 L 368.6,371.8 L 369.1,374.5 Z"/><path class="region" data-name="Чеченская Республика" d="M 165.2,376.3 L 159.1,377.1 L 155.0,383.2 L 152.4,380.8 L 150.8,382.0 L 146.1,381.2 L 143.2,377.3 L 143.5,373.6 L 146.6,373.3 L 151.2,368.3 L 150.9,364.5 L 152.0,363.5 L 153.9,365.0 L 156.3,362.9 L 157.8,366.6 L 159.2,365.5 L 161.5,369.0 L 162.4,371.0 L 161.3,372.0 L 165.5,373.2 L 164.2,374.3 L 165.2,376.3 Z"/><path class="region" data-name="Чувашская Республика - Чувашия" d="M 280.9,286.0 L 280.7,285.0 L 280.9,286.0 Z M 298.0,281.4 L 295.3,280.4 L 293.6,282.1 L 289.3,281.1 L 288.2,282.4 L 290.6,282.9 L 289.7,285.5 L 288.1,284.8 L 287.1,286.5 L 286.1,285.3 L 284.9,287.0 L 285.4,285.5 L 284.4,286.5 L 283.5,283.7 L 280.5,285.0 L 277.9,282.6 L 277.3,278.9 L 279.6,275.1 L 278.1,275.6 L 278.4,274.3 L 284.4,272.7 L 284.5,267.9 L 291.6,267.0 L 292.4,268.6 L 294.1,268.2 L 298.3,270.8 L 296.8,272.5 L 298.7,275.4 L 297.5,277.3 L 298.0,281.4 Z"/><path class="region" data-name="Чукотский автономный округ" d="M 1048.7,124.0 L 1050.1,125.1 L 1046.1,123.2 L 1048.5,123.9 Z M 936.8,69.8 L 949.4,75.9 L 947.8,82.5 L 945.8,83.1 L 940.3,81.1 L 936.8,70.2 Z M 949.2,60.3 L 952.3,65.4 L 951.3,73.0 L 949.4,75.9 L 936.8,69.8 L 937.8,66.1 L 941.0,62.2 L 948.9,60.1 Z M 1029.1,48.1 L 1036.0,50.5 L 1030.6,53.8 L 1033.9,56.4 L 1035.5,60.6 L 1034.0,64.7 L 1046.3,70.4 L 1047.7,77.2 L 1044.8,82.3 L 1038.3,85.4 L 1034.6,90.2 L 1029.5,91.7 L 1025.0,90.3 L 1023.0,91.6 L 1022.6,96.1 L 1019.4,104.3 L 1022.9,111.8 L 966.8,84.5 L 1005.1,64.7 L 1011.0,55.8 L 1016.5,54.6 L 1025.2,48.9 L 1028.7,49.2 L 1029.0,48.3 Z M 966.8,84.5 L 1022.9,111.8 L 1025.1,120.4 L 1036.2,123.0 L 1042.1,122.1 L 1050.1,125.1 L 1053.8,132.0 L 1046.5,138.4 L 1044.7,142.0 L 1045.2,161.7 L 1040.8,159.2 L 1035.5,159.6 L 1034.4,157.7 L 1031.4,159.4 L 1031.0,165.2 L 1027.1,168.4 L 1027.0,172.8 L 1025.1,173.2 L 1025.3,176.4 L 1022.9,179.3 L 1017.7,177.2 L 1017.1,178.4 L 1011.2,179.3 L 1010.7,180.7 L 1007.5,181.9 L 1005.2,171.5 L 1001.1,170.5 L 998.9,172.6 L 993.8,171.8 L 991.0,175.5 L 986.1,175.1 L 985.7,178.0 L 982.5,179.9 L 982.1,182.1 L 979.3,181.1 L 976.2,182.6 L 977.3,185.3 L 972.1,186.0 L 971.9,188.1 L 969.7,189.0 L 969.6,192.0 L 971.1,192.3 L 969.5,194.8 L 964.2,197.3 L 959.1,196.5 L 955.7,199.7 L 950.9,198.3 L 944.0,200.8 L 940.3,194.8 L 938.3,196.3 L 935.1,196.3 L 934.1,190.9 L 930.4,189.2 L 924.8,190.0 L 920.9,186.4 L 922.4,183.9 L 919.9,183.5 L 919.5,179.0 L 925.5,170.2 L 926.5,166.4 L 930.7,162.7 L 928.7,159.7 L 926.2,158.5 L 926.5,157.1 L 922.9,156.2 L 922.7,154.0 L 918.9,153.8 L 914.7,149.0 L 918.5,142.7 L 922.7,141.7 L 929.2,134.7 L 927.1,126.7 L 928.3,124.0 L 932.3,121.3 L 932.6,115.5 L 945.9,101.7 L 949.3,95.1 L 954.2,93.1 L 961.2,86.8 L 966.6,84.5 Z"/><path class="region" data-name="Ямало-Ненецкий автономный округ" d="M 568.0,318.7 L 568.7,311.0 L 565.1,310.8 L 564.8,307.9 L 561.2,307.0 L 564.7,300.6 L 563.3,295.4 L 560.7,294.1 L 560.6,290.8 L 562.6,289.4 L 561.4,285.0 L 563.6,282.9 L 560.1,273.3 L 562.8,270.0 L 561.3,264.1 L 564.5,264.6 L 567.8,260.0 L 568.7,256.6 L 570.3,255.8 L 569.3,250.2 L 570.5,249.1 L 567.8,247.5 L 569.1,245.7 L 568.5,244.0 L 567.0,246.2 L 563.9,246.0 L 563.6,244.2 L 559.5,242.2 L 559.5,237.6 L 557.8,236.4 L 558.1,233.8 L 561.0,232.6 L 561.4,231.2 L 562.2,232.0 L 566.6,229.1 L 569.5,230.1 L 568.6,229.1 L 570.1,227.6 L 571.1,222.0 L 566.7,216.1 L 568.6,213.0 L 571.3,213.9 L 572.7,211.2 L 574.3,211.1 L 568.7,204.2 L 570.5,201.0 L 570.0,192.8 L 573.1,185.2 L 565.3,180.7 L 559.2,183.7 L 557.2,183.3 L 551.7,179.4 L 551.5,176.0 L 549.6,173.1 L 544.1,171.9 L 534.2,178.7 L 525.9,187.9 L 517.8,189.6 L 511.5,194.4 L 509.5,197.4 L 508.0,204.1 L 498.4,206.6 L 496.3,210.7 L 492.5,211.6 L 491.4,213.5 L 494.2,216.2 L 493.7,219.7 L 489.5,222.6 L 488.0,225.2 L 487.7,226.7 L 490.7,228.6 L 489.3,231.5 L 487.1,230.7 L 487.1,233.5 L 480.8,234.6 L 478.7,237.3 L 467.7,237.0 L 460.2,241.9 L 455.4,240.8 L 454.4,246.5 L 455.9,248.4 L 451.1,254.4 L 448.5,255.5 L 451.9,259.8 L 450.6,260.9 L 451.1,262.3 L 461.8,264.9 L 468.2,269.1 L 468.8,271.2 L 466.3,273.5 L 469.5,278.7 L 474.8,277.6 L 476.6,279.7 L 478.1,278.8 L 477.9,277.0 L 480.2,277.7 L 480.2,279.2 L 484.4,282.3 L 485.8,285.5 L 483.5,287.0 L 483.3,291.8 L 486.0,293.6 L 483.7,300.1 L 489.7,301.9 L 492.7,301.2 L 493.6,305.4 L 497.6,307.6 L 498.3,310.0 L 505.6,312.3 L 507.8,315.8 L 510.0,315.5 L 514.9,326.3 L 519.3,326.0 L 525.7,328.5 L 527.1,326.3 L 534.5,323.8 L 537.1,331.4 L 540.0,330.8 L 543.2,332.9 L 545.2,337.8 L 548.6,337.3 L 550.7,343.4 L 559.9,336.0 L 562.8,330.3 L 561.2,329.7 L 559.8,326.2 L 561.6,325.8 L 563.9,322.4 L 567.0,321.6 L 568.0,318.9 Z"/><path class="region" data-name="Ярославская область" d="M 292.3,218.3 L 284.9,218.4 L 282.8,221.0 L 280.5,220.2 L 277.4,222.3 L 270.5,218.9 L 264.0,221.1 L 262.8,217.4 L 261.1,216.6 L 262.9,211.4 L 269.5,208.9 L 268.3,206.0 L 270.7,204.0 L 271.9,199.1 L 272.8,199.9 L 273.2,198.5 L 275.6,200.0 L 276.0,196.5 L 281.9,195.9 L 284.5,197.2 L 287.8,202.1 L 290.3,200.7 L 291.1,201.6 L 292.4,206.4 L 290.7,211.0 L 294.0,214.6 L 292.4,218.3 Z"/>
  </g>
  <g aria-hidden="true">
    <line class="leader" x1="248.2" y1="216.6" x2="270.2" y2="188.6"/><g class="pin" transform="translate(248.2 216.6)"><circle r="9"/><text y="4">1</text></g><g class="label" text-anchor="start" transform="translate(270.2 188.6)"><text class="label-title">Москва</text><text class="label-subtitle" y="17">центр и московские институты</text></g><line class="leader" x1="272.8" y1="143.0" x2="254.8" y2="99.0"/><g class="pin" transform="translate(272.8 143.0)"><circle r="9"/><text y="4">2</text></g><g class="label" text-anchor="end" transform="translate(254.8 99.0)"><text class="label-title">Санкт-Петербург</text><text class="label-subtitle" y="17">Социологический институт РАН</text></g><line class="leader" x1="106.6" y1="266.3" x2="140.6" y2="258.3"/><g class="pin" transform="translate(106.6 266.3)"><circle r="9"/><text y="4">3</text></g><g class="label" text-anchor="start" transform="translate(140.6 258.3)"><text class="label-title">Симферополь</text><text class="label-subtitle" y="17">Крымский филиал</text></g><line class="leader" x1="142.3" y1="355.5" x2="168.3" y2="411.5"/><g class="pin" transform="translate(142.3 355.5)"><circle r="9"/><text y="4">4</text></g><g class="label" text-anchor="start" transform="translate(168.3 411.5)"><text class="label-title">Нальчик</text><text class="label-subtitle" y="17">Северо-Кавказский филиал</text></g><line class="leader" x1="160.9" y1="295.3" x2="198.9" y2="307.3"/><g class="pin" transform="translate(160.9 295.3)"><circle r="9"/><text y="4">5</text></g><g class="label" text-anchor="start" transform="translate(198.9 307.3)"><text class="label-title">Ростов-на-Дону</text><text class="label-subtitle" y="17">Южно-Российский филиал</text></g>
  </g>
  <text class="caption" x="42" y="592">Территориальные узлы показаны как города присутствия; московские институты раскрыты на странице отдельным структурным блоком.</text>
</svg>
